<?xml version="1.0" encoding="UTF-8"?>
<svg version="1.1" xmlns="http://www.w3.org/2000/svg" width="500" height="500">
<path d="M0 0 C165 0 330 0 500 0 C500 165 500 330 500 500 C335 500 170 500 0 500 C0 335 0 170 0 0 Z " fill="#333755" transform="translate(0,0)"/>
<path d="M0 0 C8.88037307 5.28685966 14.15603587 11.83387997 17.68359375 21.59765625 C18.6676728 27.04662542 18.81607352 32.30049774 18.78125 37.8125 C18.77983505 38.66824112 18.7784201 39.52398224 18.77696228 40.40565491 C18.77140365 43.11552556 18.758859 45.82531093 18.74609375 48.53515625 C18.7410734 50.38216026 18.73651143 52.22916557 18.73242188 54.07617188 C18.7214478 58.58336576 18.70421205 63.09049659 18.68359375 67.59765625 C13.06434143 67.69747899 7.44561957 67.76956985 1.82568359 67.81738281 C-0.08098354 67.83734117 -1.98759073 67.86451785 -3.89404297 67.89941406 C-27.20970575 68.3151102 -27.20970575 68.3151102 -37.5 61.484375 C-47.10179715 52.1155504 -52.12140674 44.51514307 -52.62890625 30.84765625 C-52.5230262 21.34198046 -48.76490617 13.50782707 -42.31640625 6.59765625 C-39.80407755 4.30309811 -37.19705178 2.40407218 -34.31640625 0.59765625 C-33.67316406 0.18257812 -33.02992188 -0.2325 -32.3671875 -0.66015625 C-22.5687206 -5.99798774 -9.74319077 -4.74600473 0 0 Z " fill="#F3F4F4" transform="translate(228.31640625,149.40234375)"/>
<path d="M0 0 C4.62419084 3.76849945 7.96334003 8.07515252 10.65234375 13.390625 C11.01585937 14.08671875 11.379375 14.7828125 11.75390625 15.5 C14.54143197 24.46856103 14.46108893 37.41946088 10.08984375 45.765625 C8.41796875 48.234375 8.41796875 48.234375 6.65234375 50.390625 C5.84023438 51.39609375 5.84023438 51.39609375 5.01171875 52.421875 C-1.81371447 59.94898827 -10.59748614 63.80405447 -20.65588379 64.56532288 C-23.02577906 64.61941776 -25.38751567 64.61627072 -27.7578125 64.5859375 C-28.61072372 64.5831076 -29.46363495 64.58027771 -30.34239197 64.57736206 C-33.03179743 64.56628331 -35.72085367 64.54120293 -38.41015625 64.515625 C-40.24804202 64.50557925 -42.08593308 64.49645621 -43.92382812 64.48828125 C-48.39856938 64.46638451 -52.87305388 64.43194173 -57.34765625 64.390625 C-57.44719122 58.44991842 -57.51943779 52.50970673 -57.56738281 46.56835938 C-57.58738841 44.55102065 -57.61460185 42.5337391 -57.64941406 40.51660156 C-57.69842202 37.60206927 -57.72073589 34.68830941 -57.73828125 31.7734375 C-57.75892639 30.88447784 -57.77957153 29.99551819 -57.80084229 29.07962036 C-57.80419777 19.526671 -54.36697987 10.48837555 -47.59765625 3.61328125 C-34.02582601 -8.92475724 -15.52603924 -10.64347449 0 0 Z " fill="#F4F4F5" transform="translate(310.34765625,152.609375)"/>
<path d="M0 0 C3.99974981 -0.11710979 7.99905281 -0.18755489 12 -0.25 C13.12535156 -0.28351563 14.25070312 -0.31703125 15.41015625 -0.3515625 C23.43374022 -0.44540559 29.06214619 0.42213655 35.09375 5.90234375 C39.55931059 12.36500226 40.16559399 18.27918514 39 26 C37.38364716 30.91747557 34.29220764 34.17342424 30 37 C24.42002478 39.63763334 19.06789826 39.65219587 13 39 C7.91154883 36.64423557 4.23452557 32.5409789 1 28 C-0.0592918 24.82212459 -0.11458939 22.57411057 -0.09765625 19.23828125 C-0.09443359 18.12001953 -0.09121094 17.00175781 -0.08789062 15.84960938 C-0.07951172 14.68236328 -0.07113281 13.51511719 -0.0625 12.3125 C-0.05573242 10.54422852 -0.05573242 10.54422852 -0.04882812 8.74023438 C-0.03703273 5.82677211 -0.0205727 2.91341137 0 0 Z " fill="#F3F4F5" transform="translate(253,222)"/>
<path d="M0 0 C1.20398438 0.02255859 2.40796875 0.04511719 3.6484375 0.06835938 C6.60026661 0.12692741 9.54946573 0.20889978 12.5 0.3125 C12.58770383 4.16652129 12.64062735 8.02028291 12.6875 11.875 C12.71263672 12.96103516 12.73777344 14.04707031 12.76367188 15.16601562 C12.8303997 22.4838333 12.58067559 27.78269101 7.59765625 33.4921875 C6.92605469 34.05164063 6.25445312 34.61109375 5.5625 35.1875 C4.89347656 35.76242187 4.22445312 36.33734375 3.53515625 36.9296875 C-1.217059 40.1586399 -6.95925595 39.76637857 -12.5 39.3125 C-18.55611815 37.59659986 -22.03852786 34.42339847 -25.5 29.3125 C-27.41957414 23.55377759 -27.62998497 16.63381096 -25.6640625 10.85546875 C-19.76084735 0.49512806 -11.06498418 -0.39517801 0 0 Z " fill="#F3F4F5" transform="translate(234.5,221.6875)"/>
<path d="M0 0 C4.74681026 2.63401432 7.68905345 6.31732446 9.75 11.3125 C10.61536999 18.91970593 10.52929845 26.05316074 5.75 32.3125 C0.25230349 37.54201619 -4.6724313 37.72586093 -12.0078125 37.65234375 C-16.61570798 37.16934748 -19.25288502 35.81363431 -22.25 32.3125 C-26.62301873 25.82350446 -25.99142278 17.86834784 -25.25 10.3125 C-23.67278623 4.86799372 -20.12667481 2.010235 -15.25 -0.6875 C-9.81939165 -2.49770278 -5.15256228 -2.38847747 0 0 Z " fill="#EDF0F3" transform="translate(216.25,275.6875)"/>
<path d="M0 0 C22.44736842 0 22.44736842 0 28.8125 5.375 C32.85401012 10.22481214 33.39713961 14.25763652 33.25 20.4375 C32.72412685 25.82769981 31.07075384 29.66879252 27.6875 33.875 C19.34938618 40.46792721 10.79483777 38 0 38 C0 25.46 0 12.92 0 0 Z " fill="#F0F1F5" transform="translate(117,275)"/>
<path d="M0 0 C3.361875 -0.0825 6.72375 -0.165 10.1875 -0.25 C11.23832764 -0.28641602 12.28915527 -0.32283203 13.37182617 -0.36035156 C17.74859079 -0.41239095 20.29968768 -0.42528377 24.11328125 1.890625 C27.03570617 5.15793236 27.38729797 7.55787286 27.36328125 11.9609375 C26.75965397 15.349039 24.5844052 16.91986899 22 19 C21.67 19.33 21.34 19.66 21 20 C21.61359375 20.53367187 22.2271875 21.06734375 22.859375 21.6171875 C25.33359097 24.37133301 26.16014535 26.60459648 27.25 30.125 C27.58515625 31.17945313 27.9203125 32.23390625 28.265625 33.3203125 C29 36 29 36 29 38 C26.36 38 23.72 38 21 38 C20.731875 37.01257813 20.46375 36.02515625 20.1875 35.0078125 C18.4074486 27.90889507 18.4074486 27.90889507 13.88671875 22.625 C11.46354022 22.00140582 11.46354022 22.00140582 8 22 C8 27.28 8 32.56 8 38 C5.36 38 2.72 38 0 38 C0 25.46 0 12.92 0 0 Z " fill="#EDEFF3" transform="translate(329,275)"/>
<path d="M0 0 C3.63 0 7.26 0 11 0 C12.55444178 4.44529875 14.10248355 8.89275636 15.64477539 13.34228516 C16.16973713 14.85395509 16.69640717 16.36503296 17.22485352 17.87548828 C17.98649642 20.05345676 18.74186056 22.23351862 19.49609375 24.4140625 C19.73154404 25.08305573 19.96699432 25.75204895 20.20957947 26.4413147 C21.52804217 30.27544442 22.45364439 33.98251941 23 38 C20.36 38 17.72 38 15 38 C14.34 35.03 13.68 32.06 13 29 C8.05 29 3.1 29 -2 29 C-2.66 31.97 -3.32 34.94 -4 38 C-6.64 38 -9.28 38 -12 38 C-10.41629695 29.70831336 -7.67084512 21.88046291 -4.875 13.9375 C-4.4018818 12.5815413 -3.92922194 11.22542259 -3.45703125 9.86914062 C-2.30996322 6.57756639 -1.15671656 3.28819785 0 0 Z " fill="#EDEFF3" transform="translate(88,275)"/>
<path d="M0 0 C20.6875 0 20.6875 0 25.3125 4 C27.74474191 8.32398561 27.79031197 12.14636692 27 17 C24.66373857 21.15335365 22.44598138 22.55633363 18 24 C14.30979892 24.24900142 10.7047205 24.08927037 7 24 C7 28.62 7 33.24 7 38 C4.69 38 2.38 38 0 38 C0 25.46 0 12.92 0 0 Z " fill="#F3F4F8" transform="translate(158,275)"/>
<path d="M0 0 C-0.8125 2.4375 -0.8125 2.4375 -2 5 C-2.99 5.33 -3.98 5.66 -5 6 C-5.99 5.34 -6.98 4.68 -8 4 C-10.28648848 3.75892674 -10.28648848 3.75892674 -12.6875 3.875 C-13.89986328 3.90207031 -13.89986328 3.90207031 -15.13671875 3.9296875 C-15.75160156 3.95289063 -16.36648437 3.97609375 -17 4 C-17.33 5.65 -17.66 7.3 -18 9 C-14.69762418 10.43102952 -11.40333156 11.4381504 -7.9375 12.375 C-0.90655819 14.53353057 -0.90655819 14.53353057 1 18 C1.76017444 23.23226446 1.87468408 27.49192401 -0.8125 32.125 C-5.3925513 36.05075826 -10.84615728 35.32671942 -16.59375 35.28515625 C-21.07876902 34.90969021 -22.88903176 34.19985304 -26 31 C-27.0625 28.9375 -27.0625 28.9375 -27 27 C-25.5625 25.25 -25.5625 25.25 -24 24 C-23.1646875 24.433125 -23.1646875 24.433125 -22.3125 24.875 C-21.549375 25.24625 -20.78625 25.6175 -20 26 C-19.2575 26.37125 -18.515 26.7425 -17.75 27.125 C-14.03699237 28.30641152 -10.88911182 28.1318343 -7 28 C-6.7497843 25.08365871 -6.7497843 25.08365871 -7 22 C-9.84666929 20.10222047 -11.14111345 19.64195066 -14.375 19.0625 C-19.65046381 17.96451729 -22.93823108 16.59265338 -26 12 C-26.72022276 7.52791917 -26.58211165 4.01330547 -24.3125 0.0625 C-16.5763494 -6.83731 -8.29687336 -4.30208248 0 0 Z " fill="#ECEFF3" transform="translate(258,278)"/>
<path d="M0 0 C8.25 0 16.5 0 25 0 C25 1.98 25 3.96 25 6 C19.39 6 13.78 6 8 6 C8 8.97 8 11.94 8 15 C12.95 15 17.9 15 23 15 C23 16.98 23 18.96 23 21 C18.05 21 13.1 21 8 21 C8 24.63 8 28.26 8 32 C13.94 32 19.88 32 26 32 C26 33.98 26 35.96 26 38 C17.42 38 8.84 38 0 38 C0 25.46 0 12.92 0 0 Z " fill="#EFF0F5" transform="translate(397,275)"/>
<path d="M0 0 C8.25 0 16.5 0 25 0 C25 1.98 25 3.96 25 6 C19.06 6 13.12 6 7 6 C7 8.97 7 11.94 7 15 C12.28 15 17.56 15 23 15 C23 16.98 23 18.96 23 21 C17.72 21 12.44 21 7 21 C7 24.63 7 28.26 7 32 C12.94 32 18.88 32 25 32 C25 33.98 25 35.96 25 38 C16.75 38 8.5 38 0 38 C0 25.46 0 12.92 0 0 Z " fill="#F3F4F8" transform="translate(365,275)"/>
<path d="M0 0 C7.92 0 15.84 0 24 0 C24 1.98 24 3.96 24 6 C18.72 6 13.44 6 8 6 C8 9.3 8 12.6 8 16 C12.95 16 17.9 16 23 16 C23 18.31 23 20.62 23 23 C18.05 23 13.1 23 8 23 C8 27.95 8 32.9 8 38 C5.36 38 2.72 38 0 38 C0 25.46 0 12.92 0 0 Z " fill="#EAEDF1" transform="translate(298,275)"/>
<path d="M0 0 C3.8243472 1.69970987 5.48407465 3.14006672 7 7 C7.66235725 12.52991287 7.59313483 17.47848022 5.5625 22.6875 C2.41879405 25.52450293 0.34318975 25.84850495 -3.78125 26.1875 C-6.33212144 25.9719334 -7.84478522 25.36773246 -10 24 C-13.30492146 19.16065071 -13.73867671 14.67303712 -13 9 C-10.94076837 1.60357619 -7.69966681 -0.66376438 0 0 Z " fill="#3A3B58" transform="translate(211,281)"/>
<path d="M0 0 C10.8 0 10.8 0 15 3 C18.13754653 7.49715002 18.77564145 11.67676209 18 17 C16.76391302 20.4480321 15.63998001 22.41819999 12.9375 24.875 C10 26 10 26 0 26 C0 17.42 0 8.84 0 0 Z " fill="#3F425C" transform="translate(124,281)"/>
<path d="M0 0 C9.57 0 19.14 0 29 0 C29 1.98 29 3.96 29 6 C25.37 6 21.74 6 18 6 C18 16.56 18 27.12 18 38 C15.69 38 13.38 38 11 38 C11 27.44 11 16.88 11 6 C7.37 6 3.74 6 0 6 C0 4.02 0 2.04 0 0 Z " fill="#F4F6FA" transform="translate(263,275)"/>
<path d="M0 0 C8.36923077 -0.36923077 8.36923077 -0.36923077 11.5625 1.5 C12.036875 1.995 12.51125 2.49 13 3 C12.6875 6.375 12.6875 6.375 12 10 C7.7975546 12.80163026 4.99895065 12.14489712 0 12 C0 8.04 0 4.08 0 0 Z " fill="#41425C" transform="translate(165,281)"/>
<path d="M0 0 C3.02350897 2.26763173 4.72392828 3.60823345 5.47265625 7.3828125 C5.61732844 11.59717641 5.40281356 14.283887 3.3125 18 C-0.79807181 21.55508913 -4.45997016 22.25397662 -9.8125 22.125 C-11.27623047 22.09792969 -11.27623047 22.09792969 -12.76953125 22.0703125 C-13.50558594 22.04710937 -14.24164063 22.02390625 -15 22 C-15 21.67 -15 21.34 -15 21 C-11.7 21 -8.4 21 -5 21 C-4.855625 20.2575 -4.71125 19.515 -4.5625 18.75 C-4.24550824 17.20026249 -3.90757721 15.65341452 -3.5 14.125 C-1.93736824 8.46312588 -1.93736824 8.46312588 -3 3 C-2.01 2.01 -1.02 1.02 0 0 Z " fill="#ECEEF2" transform="translate(180,277)"/>
<path d="M0 0 C4.04790179 0.02582393 6.47952997 0.7180232 9.75 3.25 C7.875 8 7.875 8 6.75 10.25 C4.95676747 9.96812064 3.16542874 9.6741719 1.375 9.375 C0.37726563 9.21257812 -0.62046875 9.05015625 -1.6484375 8.8828125 C-4.25 8.25 -4.25 8.25 -6.25 6.25 C-5.62325804 1.11071594 -5.11302153 0.10158321 0 0 Z " fill="#3B3E57" transform="translate(245.25,280.75)"/>
<path d="M0 0 C1.423125 -0.061875 2.84625 -0.12375 4.3125 -0.1875 C5.51326172 -0.23970703 5.51326172 -0.23970703 6.73828125 -0.29296875 C9 0 9 0 10.8046875 1.31640625 C12 3 12 3 11.8125 6.125 C11.544375 7.07375 11.27625 8.0225 11 9 C7.57067929 10.71466036 3.78283935 10.05404056 0 10 C0 6.7 0 3.4 0 0 Z " fill="#3A3953" transform="translate(337,281)"/>
<path d="M0 0 C8.25 0 16.5 0 25 0 C24.67 0.99 24.34 1.98 24 3 C24.66 3.33 25.32 3.66 26 4 C18.74 4 11.48 4 4 4 C3.67 3.34 3.34 2.68 3 2 C2.01 1.34 1.02 0.68 0 0 Z " fill="#42415F" transform="translate(221,218)"/>
<path d="M0 0 C2.17186421 2.17186421 2.6793248 3.49976531 3.625 6.375 C3.88539062 7.14585937 4.14578125 7.91671875 4.4140625 8.7109375 C5 11 5 11 5 15 C2.03 15 -0.94 15 -4 15 C-2.07289294 4.44191344 -2.07289294 4.44191344 0 0 Z " fill="#3F3D58" transform="translate(93,283)"/>
<path d="M0 0 C0.99 1.32 1.98 2.64 3 4 C2.34 5.32 1.68 6.64 1 8 C-0.5625 6.75 -0.5625 6.75 -2 5 C-1.74853421 2.86254078 -1.54074221 1.54074221 0 0 Z " fill="#E3E6E9" transform="translate(233,303)"/>
<path d="M0 0 C2.35953094 2.35953094 2.49141413 3.77895617 3 7 C2.01 7.495 2.01 7.495 1 8 C0.67 7.34 0.34 6.68 0 6 C-0.99 6.495 -0.99 6.495 -2 7 C-1.34 4.69 -0.68 2.38 0 0 Z " fill="#504F69" transform="translate(93,283)"/>
<path d="M0 0 C2.4375 0.75 2.4375 0.75 5 2 C5.8125 4.125 5.8125 4.125 6 6 C5.01 5.67 4.02 5.34 3 5 C3 4.34 3 3.68 3 3 C2.01 2.67 1.02 2.34 0 2 C0 1.34 0 0.68 0 0 Z " fill="#DDE1E9" transform="translate(348,275)"/>
</svg>
