<?xml version="1.0" encoding="UTF-8"?>
<svg version="1.1" xmlns="http://www.w3.org/2000/svg" width="224" height="102">
<path d="M0 0 C73.92 0 147.84 0 224 0 C224 33.66 224 67.32 224 102 C150.08 102 76.16 102 0 102 C0 68.34 0 34.68 0 0 Z " fill="#FCFCFD" transform="translate(0,0)"/>
<path d="M0 0 C2.97 0 5.94 0 9 0 C9 12.21 9 24.42 9 37 C10.65 37.33 12.3 37.66 14 38 C14 25.79 14 13.58 14 1 C16.64 1 19.28 1 22 1 C24 3 24 3 24.8984375 5.26171875 C26.15454891 8.3841801 27.79081343 10.9932873 29.625 13.8125 C30.73875 15.524375 31.8525 17.23625 33 19 C33.33 13.06 33.66 7.12 34 1 C36.97 1 39.94 1 43 1 C43.33 11.89 43.66 22.78 44 34 C44.99 33.01 44.99 33.01 46 32 C46.66 32.33 47.32 32.66 48 33 C48 22.44 48 11.88 48 1 C50.805 0.9175 53.61 0.835 56.5 0.75 C57.36689453 0.71358398 58.23378906 0.67716797 59.12695312 0.63964844 C65.58932562 0.54883541 70.80513507 2.08720167 75.65087891 6.50512695 C79.82856367 11.13414683 79.24074052 16.71760369 79.125 22.5625 C79.11597656 23.41263672 79.10695313 24.26277344 79.09765625 25.13867188 C79.0802977 26.71953982 79.05881206 28.3003721 79.03173828 29.88110352 C79.00119029 31.92053434 79 33.9603404 79 36 C77.35 36 75.7 36 74 36 C74 36.66 74 37.32 74 38 C72.02 38.66 70.04 39.32 68 40 C70.64 39.67 73.28 39.34 76 39 C76.33 39.99 76.66 40.98 77 42 C77.99 42 78.98 42 80 42 C82.22885711 45.34328566 82.20027375 46.2563132 82.0625 50.125 C81.96130378 55.19155745 82.34142149 59.97833888 83 65 C81.02 65 79.04 65 77 65 C76.32880451 63.5437455 75.66318193 62.08492133 75 60.625 C74.62875 59.81289062 74.2575 59.00078125 73.875 58.1640625 C73 56 73 56 73 54 C73.66 54 74.32 54 75 54 C75 52.02 75 50.04 75 48 C73.515 47.505 73.515 47.505 72 47 C72 52.94 72 58.88 72 65 C70.02 65 68.04 65 66 65 C66 63.35 66 61.7 66 60 C65.34 60 64.68 60 64 60 C64 61.65 64 63.3 64 65 C61.5211787 65.19389096 59.04219069 65.38040123 56.5625 65.5625 C55.50192383 65.64661133 55.50192383 65.64661133 54.41992188 65.73242188 C52.61572163 65.86190993 50.80768048 65.93521608 49 66 C48.67 65.67 48.34 65.34 48 65 C45.46950598 64.92686433 42.96695163 64.90752473 40.4375 64.9375 C39.37112305 64.94426758 39.37112305 64.94426758 38.28320312 64.95117188 C36.52209987 64.96299136 34.76103964 64.98092737 33 65 C33 65.66 33 66.32 33 67 C31.83082031 66.96519531 30.66164062 66.93039063 29.45703125 66.89453125 C27.90886859 66.86638284 26.36069032 66.83908381 24.8125 66.8125 C24.04357422 66.78736328 23.27464844 66.76222656 22.48242188 66.73632812 C21.73154297 66.72666016 20.98066406 66.71699219 20.20703125 66.70703125 C19.5210083 66.6913208 18.83498535 66.67561035 18.12817383 66.65942383 C15.8369612 66.88558053 15.8369612 66.88558053 13.58203125 68.5 C10.59267594 70.23663001 8.90569687 70.35037481 5.48046875 70.29296875 C4.45888672 70.28330078 3.43730469 70.27363281 2.38476562 70.26367188 C0.80211914 70.2259668 0.80211914 70.2259668 -0.8125 70.1875 C-2.42415039 70.16719727 -2.42415039 70.16719727 -4.06835938 70.14648438 C-6.71275455 70.11122577 -9.35611748 70.06194366 -12 70 C-12.33 69.01 -12.66 68.02 -13 67 C-14.33038449 66.6550855 -15.66457061 66.32483418 -17 66 C-20.25 64.75 -20.25 64.75 -23 62 C-23.94296462 56.37993087 -23.68573141 50.3453186 -22.25 44.8125 C-19.0137957 40.76724462 -15.70420235 40.72271157 -10.71484375 40.09375 C-8 40 -8 40 -6 41 C-5.5859375 43.72265625 -5.5859375 43.72265625 -5.375 47.0625 C-5.30023438 48.16722656 -5.22546875 49.27195313 -5.1484375 50.41015625 C-5.09945312 51.26480469 -5.05046875 52.11945313 -5 53 C-4.87625 52.195625 -4.7525 51.39125 -4.625 50.5625 C-4.315625 49.2940625 -4.315625 49.2940625 -4 48 C-3.01 47.505 -3.01 47.505 -2 47 C-1.27840576 45.35636866 -0.60648579 43.68949614 0 42 C-0.495 41.505 -0.495 41.505 -1 41 C-1.10110353 38.0546443 -1.13969279 35.1332244 -1.1328125 32.1875 C-1.13424759 30.86141724 -1.13424759 30.86141724 -1.13571167 29.50854492 C-1.13639351 27.63557871 -1.13453893 25.76261014 -1.13037109 23.88964844 C-1.12502289 21.01231612 -1.13031593 18.13513992 -1.13671875 15.2578125 C-1.13605797 13.44270799 -1.13477681 11.62760357 -1.1328125 9.8125 C-1.13483673 8.94584717 -1.13686096 8.07919434 -1.13894653 7.1862793 C-1.11495009 1.11495009 -1.11495009 1.11495009 0 0 Z " fill="#EFECF2" transform="translate(120,32)"/>
<path d="M0 0 C2.3406065 -0.27769908 4.67624308 -0.60539977 7 -1 C7.495 0.485 7.495 0.485 8 2 C8.99 2 9.98 2 11 2 C13.22885711 5.34328566 13.20027375 6.2563132 13.0625 10.125 C12.96130378 15.19155745 13.34142149 19.97833888 14 25 C12.02 25 10.04 25 8 25 C7.32880451 23.5437455 6.66318193 22.08492133 6 20.625 C5.62875 19.81289062 5.2575 19.00078125 4.875 18.1640625 C4 16 4 16 4 14 C4.66 14 5.32 14 6 14 C6 12.02 6 10.04 6 8 C5.01 7.67 4.02 7.34 3 7 C3 12.94 3 18.88 3 25 C1.02 25 -0.96 25 -3 25 C-3 23.35 -3 21.7 -3 20 C-3.66 20 -4.32 20 -5 20 C-5 21.65 -5 23.3 -5 25 C-7.4788213 25.19389096 -9.95780931 25.38040123 -12.4375 25.5625 C-13.14455078 25.61857422 -13.85160156 25.67464844 -14.58007812 25.73242188 C-16.38427837 25.86190993 -18.19231952 25.93521608 -20 26 C-20.33 25.67 -20.66 25.34 -21 25 C-23.53049402 24.92686433 -26.03304837 24.90752473 -28.5625 24.9375 C-29.62887695 24.94426758 -29.62887695 24.94426758 -30.71679688 24.95117188 C-32.47790013 24.96299136 -34.23896036 24.98092737 -36 25 C-36 25.66 -36 26.32 -36 27 C-37.16917969 26.96519531 -38.33835938 26.93039063 -39.54296875 26.89453125 C-41.09113141 26.86638284 -42.63930968 26.83908381 -44.1875 26.8125 C-44.95642578 26.78736328 -45.72535156 26.76222656 -46.51757812 26.73632812 C-47.26845703 26.72666016 -48.01933594 26.71699219 -48.79296875 26.70703125 C-49.82200317 26.68346558 -49.82200317 26.68346558 -50.87182617 26.65942383 C-53.1630388 26.88558053 -53.1630388 26.88558053 -55.41796875 28.5 C-58.40732406 30.23663001 -60.09430313 30.35037481 -63.51953125 30.29296875 C-64.54111328 30.28330078 -65.56269531 30.27363281 -66.61523438 30.26367188 C-67.67033203 30.23853516 -68.72542969 30.21339844 -69.8125 30.1875 C-71.42415039 30.16719727 -71.42415039 30.16719727 -73.06835938 30.14648438 C-75.71275455 30.11122577 -78.35611748 30.06194366 -81 30 C-81.33 29.01 -81.66 28.02 -82 27 C-83.33038449 26.6550855 -84.66457061 26.32483418 -86 26 C-89.25 24.75 -89.25 24.75 -92 22 C-92.99546508 16.3317921 -93.37163241 11.04065312 -90.0859375 6.15234375 C-87.76316842 3.75562884 -86.92843665 3.03805068 -83.6171875 2.90234375 C-82.71226563 2.91394531 -81.80734375 2.92554687 -80.875 2.9375 C-79.96492188 2.94652344 -79.05484375 2.95554687 -78.1171875 2.96484375 C-77.41851562 2.97644531 -76.71984375 2.98804687 -76 3 C-76 4.32 -76 5.64 -76 7 C-78.05078125 7.22786458 -80.1015625 7.45572917 -82.15234375 7.68359375 C-84.01140229 7.81886614 -84.01140229 7.81886614 -85 9 C-85.0979057 10.49738124 -85.12974864 11.99942892 -85.125 13.5 C-85.12757812 14.3146875 -85.13015625 15.129375 -85.1328125 15.96875 C-85.2245178 17.99530377 -85.2245178 17.99530377 -84 19 C-82.15108054 19.23363881 -80.29511969 19.41303635 -78.4375 19.5625 C-77.42558594 19.64628906 -76.41367188 19.73007813 -75.37109375 19.81640625 C-74.19740234 19.90728516 -74.19740234 19.90728516 -73 20 C-72.65066406 18.85660156 -72.30132812 17.71320313 -71.94140625 16.53515625 C-71.48193537 15.04422012 -71.02229099 13.55333745 -70.5625 12.0625 C-70.33240234 11.30775391 -70.10230469 10.55300781 -69.86523438 9.77539062 C-68.11328125 4.11328125 -68.11328125 4.11328125 -67 3 C-65.33382885 2.95936168 -63.66611905 2.957279 -62 3 C-61.20724852 4.4160599 -60.41584688 5.83287553 -59.625 7.25 C-59.18414062 8.03890625 -58.74328125 8.8278125 -58.2890625 9.640625 C-57.14481179 11.73495054 -56.06728714 13.86542573 -55 16 C-54.505 9.565 -54.505 9.565 -54 3 C-42.53365519 2.63011791 -42.53365519 2.63011791 -40.12890625 4.296875 C-38.27086856 7.10000452 -38.77092974 9.73574878 -39 13 C-39.20625 13.680625 -39.4125 14.36125 -39.625 15.0625 C-40.19805144 18.02326576 -39.06350753 20.24739228 -38 23 C-37.01 23 -36.02 23 -35 23 C-35.00523682 22.36908447 -35.01047363 21.73816895 -35.01586914 21.08813477 C-35.03657826 18.24626653 -35.04964066 15.40441412 -35.0625 12.5625 C-35.07087891 11.56927734 -35.07925781 10.57605469 -35.08789062 9.55273438 C-35.09111328 8.60849609 -35.09433594 7.66425781 -35.09765625 6.69140625 C-35.10289307 5.81685791 -35.10812988 4.94230957 -35.11352539 4.04125977 C-35 2 -35 2 -34 1 C-31.85605481 0.9008243 -29.70873268 0.8702985 -27.5625 0.875 C-25.80099609 0.87113281 -25.80099609 0.87113281 -24.00390625 0.8671875 C-21 1 -21 1 -19 2 C-19 1.34 -19 0.68 -19 0 C-18.09636719 0.01160156 -17.19273437 0.02320312 -16.26171875 0.03515625 C-14.49248047 0.04869141 -14.49248047 0.04869141 -12.6875 0.0625 C-11.51574219 0.07410156 -10.34398437 0.08570312 -9.13671875 0.09765625 C-0.51252847 -0.17084282 -0.51252847 -0.17084282 0 0 Z " fill="#FDDFDB" transform="translate(189,72)"/>
<path d="M0 0 C-1.875 4.875 -1.875 4.875 -3 6 C-3.47084501 13.05332359 -3.47084501 13.05332359 0 19 C9.05860727 26.01838041 18.80392592 26.96033271 30 26 C36.73356418 24.29016826 42.86341196 21.03203511 47.875 16.1875 C49.51399687 13.00056165 49.31005773 10.53465809 49 7 C48.1025173 4.16621868 48.1025173 4.16621868 47 2 C46.34 2 45.68 2 45 2 C45 1.34 45 0.68 45 0 C48.28186266 0.56583839 49.89184922 1.41272404 52 4 C55.21685251 9.3732042 54.68873304 15.6367708 53.46484375 21.61328125 C52.44419111 25.02103405 51.59876185 27.40123815 49.0625 29.9375 C47 31 47 31 44.9375 31.8125 C42.08032897 33.56366934 41.30594657 35.9963229 40 39 C40.86625 39.2784375 40.86625 39.2784375 41.75 39.5625 C45.10427843 41.70551122 46.17907996 44.48822563 48 48 C49.65 45.03 51.3 42.06 53 39 C53.99 39 54.98 39 56 39 C55.01 41.97 55.01 41.97 54 45 C53.34 45 52.68 45 52 45 C50.08373163 49.98229776 49.4452885 54.72684667 49 60 C48.01 60 47.02 60 46 60 C45.98582031 59.443125 45.97164062 58.88625 45.95703125 58.3125 C45.57255178 52.16082844 43.92627869 47.79470794 40 43 C39.01 42.505 39.01 42.505 38 42 C37.67 47.94 37.34 53.88 37 60 C36.01 60 35.02 60 34 60 C33.67 55.38 33.34 50.76 33 46 C31.02 50.62 29.04 55.24 27 60 C24 59 24 59 22.8671875 57.07421875 C22.53976563 56.28660156 22.21234375 55.49898437 21.875 54.6875 C21.54242188 53.90761719 21.20984375 53.12773438 20.8671875 52.32421875 C20.08449614 50.22646488 19.48940602 48.18235134 19 46 C18.34 46 17.68 46 17 46 C17 50.62 17 55.24 17 60 C16.34 60 15.68 60 15 60 C15 53.07 15 46.14 15 39 C16.32 39.33 17.64 39.66 19 40 C20.25827326 42.35742063 21.24838186 44.52170381 22.1875 47 C23.60394113 51.31576713 23.60394113 51.31576713 26 55 C28.31 49.39 30.62 43.78 33 38 C29.86570549 34.86570549 21.27079528 35.65510624 17.0703125 35.5390625 C12.04016761 35.70322931 9.52766316 37.03303541 5.9375 40.6875 C3.96503254 43.15219262 2.21704027 45.67305187 0.47265625 48.30078125 C-1 50 -1 50 -4.5 50.5 C-8 50 -8 50 -9.9375 48.3125 C-11.22973874 45.49998038 -11.42464399 44.07531645 -11 41 C-8.8828125 38.32421875 -8.8828125 38.32421875 -6.125 35.6875 C-5.22007813 34.80449219 -4.31515625 33.92148438 -3.3828125 33.01171875 C-1 31 -1 31 1 31 C1 30.34 1 29.68 1 29 C0.4225 28.773125 -0.155 28.54625 -0.75 28.3125 C-4.56083774 26.08951132 -6.61929664 23.14211008 -8 19 C-8.37851582 13.80641091 -8.71139417 8.60937009 -6 4 C-2.54054054 0 -2.54054054 0 0 0 Z " fill="#E5E5E6" transform="translate(32,36)"/>
<path d="M0 0 C20.25663717 0 20.25663717 0 26.5703125 5.32421875 C30.83457873 10.32249801 30.48497266 16.29381156 30.3671875 22.54296875 C29.8450708 27.45864191 28.60664559 30.59847169 25 34 C17.48398464 39.79428497 9.48326691 38 0 38 C0 25.46 0 12.92 0 0 Z " fill="#0B1564" transform="translate(169,33)"/>
<path d="M0 0 C5.95507399 0.3916035 10.62819824 1.37124595 16 4 C15.34 5.98 14.68 7.96 14 10 C13.01 10 12.02 10 11 10 C11 10.99 11 11.98 11 13 C9.27706628 14.44163842 7.43990048 15.53720446 5.53125 16.71875 C4.77328125 17.35296875 4.77328125 17.35296875 4 18 C4 18.99 4 19.98 4 21 C3.34 21 2.68 21 2 21 C1.67 20.01 1.34 19.02 1 18 C-0.66342837 19.66342837 -0.36048097 21.7825709 -0.5625 24.0625 C-0.64628906 24.98160156 -0.73007812 25.90070312 -0.81640625 26.84765625 C-0.87699219 27.55792969 -0.93757813 28.26820312 -1 29 C3.455 29.99 3.455 29.99 8 31 C7.34 29.68 6.68 28.36 6 27 C5.875 24.25 5.875 24.25 6 22 C7.98 22.33 9.96 22.66 12 23 C12 23.66 12 24.32 12 25 C13.32 25 14.64 25 16 25 C15.67 26.98 15.34 28.96 15 31 C14.34 31 13.68 31 13 31 C12.67 32.32 12.34 33.64 12 35 C13.0828125 34.319375 13.0828125 34.319375 14.1875 33.625 C17.85784598 31.50435566 20.7258388 30 25 30 C25 27.69 25 25.38 25 23 C23.35 22.67 21.7 22.34 20 22 C19.87882812 21.14535156 19.75765625 20.29070313 19.6328125 19.41015625 C19.46523438 18.30542969 19.29765625 17.20070313 19.125 16.0625 C18.96257813 14.96035156 18.80015625 13.85820312 18.6328125 12.72265625 C18.31957031 11.37494141 18.31957031 11.37494141 18 10 C17.34 9.67 16.68 9.34 16 9 C20.92178161 9.43427485 23.45459675 11.69095697 27 15 C29.28062828 18.42094242 29.21925007 19.68187222 29.125 23.6875 C29.10695312 24.68136719 29.08890625 25.67523438 29.0703125 26.69921875 C29.04710937 27.45847656 29.02390625 28.21773437 29 29 C29.62390625 29.12632813 30.2478125 29.25265625 30.890625 29.3828125 C33.73349731 30.21461588 34.52173816 31.48695488 36 34 C36 34.99 36 35.98 36 37 C35.01 37.00257812 34.02 37.00515625 33 37.0078125 C24.87066024 37.18988173 18.8939922 37.84237875 13 44 C12.48050781 43.57847656 11.96101563 43.15695313 11.42578125 42.72265625 C4.45805373 37.24893315 -0.32389591 36.82988031 -9 37 C-7.35946463 31.32122371 -7.35946463 31.32122371 -5.53125 29.6875 C-3.35749373 27.29193187 -3.01913005 24.94186164 -2.3125 21.8125 C-2.06113281 20.72582031 -1.80976562 19.63914062 -1.55078125 18.51953125 C-1.36902344 17.68808594 -1.18726563 16.85664063 -1 16 C-1.99 16 -2.98 16 -4 16 C-4 17.32 -4 18.64 -4 20 C-4.99 19.67 -5.98 19.34 -7 19 C-7.85883663 11.39316125 -6.16185881 7.90742309 -1.53125 1.87109375 C-0.77328125 0.94490234 -0.77328125 0.94490234 0 0 Z " fill="#C62128" transform="translate(41,12)"/>
<path d="M0 0 C2.64 0 5.28 0 8 0 C10 2 10 2 10.8984375 4.26171875 C12.15454891 7.3841801 13.79081343 9.9932873 15.625 12.8125 C16.73875 14.524375 17.8525 16.23625 19 18 C19.33 12.06 19.66 6.12 20 0 C22.64 0 25.28 0 28 0 C28 12.21 28 24.42 28 37 C22 37 22 37 19.890625 35.453125 C17.51560246 32.37148418 15.61912347 29.15595833 13.75 25.75 C13.38648438 25.1003125 13.02296875 24.450625 12.6484375 23.78125 C11.75966541 22.19081574 10.87900064 20.59585552 10 19 C9.93941406 20.28777344 9.87882813 21.57554688 9.81640625 22.90234375 C9.73201753 24.58074159 9.6473687 26.25912636 9.5625 27.9375 C9.52318359 28.78763672 9.48386719 29.63777344 9.44335938 30.51367188 C9.40146484 31.32255859 9.35957031 32.13144531 9.31640625 32.96484375 C9.26141968 34.08814087 9.26141968 34.08814087 9.20532227 35.23413086 C9 37 9 37 8 38 C5.36 38 2.72 38 0 38 C0 25.46 0 12.92 0 0 Z " fill="#18226E" transform="translate(134,33)"/>
<path d="M0 0 C0.91007812 0.00902344 1.82015625 0.01804687 2.7578125 0.02734375 C3.45648438 0.03894531 4.15515625 0.05054687 4.875 0.0625 C4.875 1.3825 4.875 2.7025 4.875 4.0625 C2.82421875 4.29036458 0.7734375 4.51822917 -1.27734375 4.74609375 C-3.13640229 4.88136614 -3.13640229 4.88136614 -4.125 6.0625 C-4.2229057 7.55988124 -4.25474864 9.06192892 -4.25 10.5625 C-4.25257812 11.3771875 -4.25515625 12.191875 -4.2578125 13.03125 C-4.3495178 15.05780377 -4.3495178 15.05780377 -3.125 16.0625 C-1.27608054 16.29613881 0.57988031 16.47553635 2.4375 16.625 C3.44941406 16.70878906 4.46132812 16.79257813 5.50390625 16.87890625 C6.67759766 16.96978516 6.67759766 16.96978516 7.875 17.0625 C8.22433594 15.91910156 8.57367188 14.77570313 8.93359375 13.59765625 C9.39306463 12.10672012 9.85270901 10.61583745 10.3125 9.125 C10.54259766 8.37025391 10.77269531 7.61550781 11.00976562 6.83789062 C12.76171875 1.17578125 12.76171875 1.17578125 13.875 0.0625 C15.54117115 0.02186168 17.20888095 0.019779 18.875 0.0625 C19.66775148 1.4785599 20.45915312 2.89537553 21.25 4.3125 C21.69085938 5.10140625 22.13171875 5.8903125 22.5859375 6.703125 C23.73018821 8.79745054 24.80771286 10.92792573 25.875 13.0625 C26.37 6.6275 26.37 6.6275 26.875 0.0625 C27.205 0.0625 27.535 0.0625 27.875 0.0625 C27.875 7.3225 27.875 14.5825 27.875 22.0625 C29.855 22.0625 31.835 22.0625 33.875 22.0625 C33.875 22.3925 33.875 22.7225 33.875 23.0625 C32.616875 23.35125 31.35875 23.64 30.0625 23.9375 C27.0210601 24.63553539 25.56830122 25.26696585 22.875 27.0625 C20.4230957 27.28955078 20.4230957 27.28955078 17.55078125 27.2578125 C16.00874023 27.24814453 16.00874023 27.24814453 14.43554688 27.23828125 C13.36369141 27.22152344 12.29183594 27.20476562 11.1875 27.1875 C10.10404297 27.17847656 9.02058594 27.16945313 7.90429688 27.16015625 C5.2276429 27.1365734 2.55143203 27.10366126 -0.125 27.0625 C-0.455 26.0725 -0.785 25.0825 -1.125 24.0625 C-2.45538449 23.7175855 -3.78957061 23.38733418 -5.125 23.0625 C-8.375 21.8125 -8.375 21.8125 -11.125 19.0625 C-12.12046508 13.3942921 -12.49663241 8.10315312 -9.2109375 3.21484375 C-6.08398611 -0.01165479 -4.36781926 -0.05599768 0 0 Z " fill="#FCF3F1" transform="translate(108.125,74.9375)"/>
<path d="M0 0 C3.84777518 2.4824356 3.84777518 2.4824356 4.625 5.125 C4.74875 5.74375 4.8725 6.3625 5 7 C5.66 7.33 6.32 7.66 7 8 C6.34 8.969375 5.68 9.93875 5 10.9375 C2.90886852 13.5299253 2.90886852 13.5299253 3 15 C4.7634375 14.938125 4.7634375 14.938125 6.5625 14.875 C14.19213476 14.91529737 19.10690837 17.42984731 25 22 C25.845625 21.01 26.69125 20.02 27.5625 19 C32.35585467 14.76354961 37.96837991 15.50004002 43.96484375 15.7890625 C45.46724609 15.89347656 45.46724609 15.89347656 47 16 C45.16466595 11.68037958 45.16466595 11.68037958 41.8125 8.625 C41.214375 8.41875 40.61625 8.2125 40 8 C40 5.36 40 2.72 40 0 C40.33 0 40.66 0 41 0 C41 1.98 41 3.96 41 6 C42.32 6.33 43.64 6.66 45 7 C45 7.66 45 8.32 45 9 C45.66 9 46.32 9 47 9 C46.67 8.236875 46.34 7.47375 46 6.6875 C45 4 45 4 45 1 C47.475 1.495 47.475 1.495 50 2 C49.01 2.33 48.02 2.66 47 3 C47 3.66 47 4.32 47 5 C47.66 5 48.32 5 49 5 C51.19643442 7.78778215 51.97730862 9.86385174 52.5625 13.375 C51.78970067 18.35526237 49.84496742 20.82108992 46 24 C35.96086415 30.12450426 25.30778344 31.92485258 13.74609375 29.24609375 C7.7398167 27.16228334 3.22445741 24.76139541 -0.8125 19.75 C-2.38019529 16.11954775 -2.71401287 12.85566948 -2 9 C-0.87699006 6.70050346 0.38600088 5.0174989 2 3 C0.02 3.99 0.02 3.99 -2 5 C-2 4.01 -2 3.02 -2 2 C-1.34 2 -0.68 2 0 2 C0 1.34 0 0.68 0 0 Z " fill="#F7F4F7" transform="translate(30,33)"/>
<path d="M0 0 C-1.875 4.875 -1.875 4.875 -3 6 C-3.47084501 13.05332359 -3.47084501 13.05332359 0 19 C9.05860727 26.01838041 18.80392592 26.96033271 30 26 C36.73356418 24.29016826 42.86341196 21.03203511 47.875 16.1875 C49.51399687 13.00056165 49.31005773 10.53465809 49 7 C48.1025173 4.16621868 48.1025173 4.16621868 47 2 C46.34 2 45.68 2 45 2 C45 1.34 45 0.68 45 0 C48.28186266 0.56583839 49.89184922 1.41272404 52 4 C54.85015432 8.74676436 54.6254004 13.62155653 54 19 C50.76800674 25.71260139 44.91521588 29.96013329 38.35839844 33.17529297 C33.98090454 34.70605636 29.58178461 34.41431228 25 34.25 C24.03449219 34.23195312 23.06898437 34.21390625 22.07421875 34.1953125 C19.71507967 34.14859687 17.35808925 34.08312137 15 34 C15 33.67 15 33.34 15 33 C16.65 33 18.3 33 20 33 C20 32.34 20 31.68 20 31 C11.84613078 29.29364714 11.84613078 29.29364714 4.16796875 31.64453125 C1.32769561 34.19114126 -1.28115981 36.56231962 -3 40 C-4.32 39.67 -5.64 39.34 -7 39 C-5.55922954 35.63820226 -3.75249979 33.40843732 -1 31 C-0.34 31 0.32 31 1 31 C1 30.34 1 29.68 1 29 C0.4225 28.773125 -0.155 28.54625 -0.75 28.3125 C-4.56083774 26.08951132 -6.61929664 23.14211008 -8 19 C-8.37851582 13.80641091 -8.71139417 8.60937009 -6 4 C-2.54054054 0 -2.54054054 0 0 0 Z " fill="#0D145B" transform="translate(32,36)"/>
<path d="M0 0 C7.26 0 14.52 0 22 0 C22 2.64 22 5.28 22 8 C17.38 8 12.76 8 8 8 C8 10.31 8 12.62 8 15 C11.63 15 15.26 15 19 15 C19 17.64 19 20.28 19 23 C15.7 23 12.4 23 9 23 C9.01160156 23.99902344 9.02320312 24.99804688 9.03515625 26.02734375 C9.04417969 27.31769531 9.05320312 28.60804687 9.0625 29.9375 C9.07410156 31.22527344 9.08570312 32.51304688 9.09765625 33.83984375 C9 37 9 37 8 38 C5.36 38 2.72 38 0 38 C0 25.46 0 12.92 0 0 Z " fill="#030F61" transform="translate(93,33)"/>
<path d="M0 0 C0.33 0 0.66 0 1 0 C1.33 1.98 1.66 3.96 2 6 C2.33 4.02 2.66 2.04 3 0 C3.33 0 3.66 0 4 0 C4.14289446 5.64167095 4.28529844 11.28335398 4.42724609 16.92504883 C4.47561345 18.84464859 4.5241153 20.76424498 4.57275391 22.68383789 C4.64260575 25.44156024 4.71197537 28.19929435 4.78125 30.95703125 C4.80312378 31.81649857 4.82499756 32.67596588 4.84753418 33.56147766 C4.86755493 34.36208115 4.88757568 35.16268463 4.90820312 35.98754883 C4.92596802 36.6914827 4.94373291 37.39541656 4.96203613 38.12068176 C5.03561789 41.76318561 4.76093283 43.80830925 3 47 C2.34 47 1.68 47 1 47 C0.67 49.64 0.34 52.28 0 55 C-0.33 55 -0.66 55 -1 55 C-1.19380077 49.47667795 -0.64060963 45.33198131 1 40 C1 38.68 1 37.36 1 36 C-0.98 36.495 -0.98 36.495 -3 37 C-3 36.34 -3 35.68 -3 35 C-5.97 35.495 -5.97 35.495 -9 36 C-9 35.34 -9 34.68 -9 34 C-9.99 34 -10.98 34 -12 34 C-12 35.32 -12 36.64 -12 38 C-12.66 37.67 -13.32 37.34 -14 37 C-13.67 32.38 -13.34 27.76 -13 23 C-9.7 23 -6.4 23 -3 23 C-3 20.36 -3 17.72 -3 15 C-6.63 15 -10.26 15 -14 15 C-14 12.69 -14 10.38 -14 8 C-9.38 8 -4.76 8 0 8 C0 5.36 0 2.72 0 0 Z " fill="#F6F8FB" transform="translate(115,33)"/>
<path d="M0 0 C2.06356895 0.2840051 4.1258285 0.57753352 6.1875 0.875 C7.33605469 1.03742187 8.48460937 1.19984375 9.66796875 1.3671875 C12.71190065 1.94528477 15.23331152 2.61665576 18 4 C18.8125 6.125 18.8125 6.125 19 8 C21.97 8.495 21.97 8.495 25 9 C25 10.32 25 11.64 25 13 C22.525 12.505 22.525 12.505 20 12 C20.4640625 12.7425 20.4640625 12.7425 20.9375 13.5 C22.41644382 16.97986781 22.62402851 20.24028509 23 24 C24.32 24.33 25.64 24.66 27 25 C27 27.31 27 29.62 27 32 C26.44570312 32.19335938 25.89140625 32.38671875 25.3203125 32.5859375 C24.23363281 32.97652344 24.23363281 32.97652344 23.125 33.375 C22.40570313 33.63023438 21.68640625 33.88546875 20.9453125 34.1484375 C18.81842006 34.93877783 18.81842006 34.93877783 17 37 C16.01 37 15.02 37 14 37 C14.33 35.68 14.66 34.36 15 33 C15.66 33 16.32 33 17 33 C17.33 31.02 17.66 29.04 18 27 C16.68 27 15.36 27 14 27 C14 26.34 14 25.68 14 25 C12.02 24.67 10.04 24.34 8 24 C8.66 26.97 9.32 29.94 10 33 C7.03 32.34 4.06 31.68 1 31 C0.94604522 29.37536158 0.90722805 27.75021459 0.875 26.125 C0.85179687 25.22007813 0.82859375 24.31515625 0.8046875 23.3828125 C1 21 1 21 3 19 C3.33 20.32 3.66 21.64 4 23 C4.226875 22.4225 4.45375 21.845 4.6875 21.25 C6.34848222 18.40260191 8.31524561 16.87932807 11 15 C11.66 15 12.32 15 13 15 C13 14.01 13 13.02 13 12 C13.99 11.67 14.98 11.34 16 11 C16.33 9.35 16.66 7.7 17 6 C15.44033782 5.491217 13.87710759 4.99336531 12.3125 4.5 C11.44238281 4.2215625 10.57226562 3.943125 9.67578125 3.65625 C6.97341834 2.9934807 4.76903475 2.7724081 2 3 C0.18523997 4.39585785 0.18523997 4.39585785 -1 6 C-0.67 4.02 -0.34 2.04 0 0 Z " fill="#F5F7F8" transform="translate(39,10)"/>
<path d="M0 0 C1.32 0.33 2.64 0.66 4 1 C3.67 2.98 3.34 4.96 3 7 C2.34 7 1.68 7 1 7 C1.28875 7.54269531 1.5775 8.08539063 1.875 8.64453125 C2.24625 9.35996094 2.6175 10.07539062 3 10.8125 C3.37125 11.52019531 3.7425 12.22789063 4.125 12.95703125 C5 15 5 15 5 18 C6.98 18 8.96 18 11 18 C11.495 20.475 11.495 20.475 12 23 C-12.09 23 -36.18 23 -61 23 C-57.04398448 19.04398448 -57.04398448 19.04398448 -52.84765625 18.8671875 C-51.59855469 18.86976562 -50.34945312 18.87234375 -49.0625 18.875 C-47.81597656 18.87242188 -46.56945312 18.86984375 -45.28515625 18.8671875 C-42 19 -42 19 -39 20 C-39 19.34 -39 18.68 -39 18 C-33.72 17.67 -28.44 17.34 -23 17 C-23 17.66 -23 18.32 -23 19 C-21.7934375 18.7525 -21.7934375 18.7525 -20.5625 18.5 C-16.34112648 17.90752652 -12.25335455 17.91493291 -8 18 C-8 16.35 -8 14.7 -8 13 C-7.34 13 -6.68 13 -6 13 C-6 14.65 -6 16.3 -6 18 C-4.02 18 -2.04 18 0 18 C0 12.06 0 6.12 0 0 Z " fill="#FDF3F0" transform="translate(192,79)"/>
<path d="M0 0 C2.64 0 5.28 0 8 0 C8 12.21 8 24.42 8 37 C2 37 2 37 -0.125 35.4375 C-4.87488418 29.26265056 -6.64936642 24.73147042 -7 17 C-5.33388095 16.957279 -3.66617115 16.95936168 -2 17 C-1.67 17.33 -1.34 17.66 -1 18 C-0.505 9.09 -0.505 9.09 0 0 Z " fill="#030D5B" transform="translate(154,33)"/>
<path d="M0 0 C2.97 0 5.94 0 9 0 C9 12.54 9 25.08 9 38 C6.36 38 3.72 38 1 38 C0 37 0 37 -0.11352539 33.48999023 C-0.11336626 31.92951578 -0.10767142 30.36903607 -0.09765625 28.80859375 C-0.0962413 27.98875504 -0.09482635 27.16891632 -0.09336853 26.32423401 C-0.08775289 23.69528618 -0.07519779 21.06642227 -0.0625 18.4375 C-0.05748701 16.65950643 -0.05292376 14.88151154 -0.04882812 13.10351562 C-0.03777839 8.73564455 -0.02050331 4.36783652 0 0 Z " fill="#161F69" transform="translate(119,33)"/>
<path d="M0 0 C3.84777518 2.4824356 3.84777518 2.4824356 4.625 5.125 C4.74875 5.74375 4.8725 6.3625 5 7 C5.66 7.33 6.32 7.66 7 8 C6.34 8.969375 5.68 9.93875 5 10.9375 C2.90886852 13.5299253 2.90886852 13.5299253 3 15 C4.7634375 14.938125 4.7634375 14.938125 6.5625 14.875 C12.32102408 14.90552221 16.54047692 15.69574534 20.9375 19.625 C21.618125 20.40875 22.29875 21.1925 23 22 C21.35 22.33 19.7 22.66 18 23 C18.33 23.66 18.66 24.32 19 25 C18.67 26.32 18.34 27.64 18 29 C22.62 29 27.24 29 32 29 C32 29.33 32 29.66 32 30 C21.15247132 30.52700544 12.40333736 30.13548871 3 24.0625 C-0.51524125 20.43740746 -1.87042105 18.16621057 -2.4375 13.0625 C-2.29672573 8.69849767 -0.68692474 6.35865593 2 3 C0.02 3.99 0.02 3.99 -2 5 C-2 4.01 -2 3.02 -2 2 C-1.34 2 -0.68 2 0 2 C0 1.34 0 0.68 0 0 Z " fill="#E7E6EC" transform="translate(30,33)"/>
<path d="M0 0 C0 0.66 0 1.32 0 2 C5.445 2.495 5.445 2.495 11 3 C11 3.33 11 3.66 11 4 C9.74445312 3.95617187 8.48890625 3.91234375 7.1953125 3.8671875 C-2.62337753 3.47647495 -2.62337753 3.47647495 -11.3828125 7.15234375 C-14.49951487 10.32021586 -17.067478 13.60359588 -19.53125 17.29296875 C-21 19 -21 19 -24.5 19.5 C-28 19 -28 19 -29.9375 17.3125 C-31.20312282 14.55790916 -31.53708909 12.99235347 -31 10 C-29 8.1875 -29 8.1875 -27 7 C-25.68 7.66 -24.36 8.32 -23 9 C-22.73832031 8.41992188 -22.47664063 7.83984375 -22.20703125 7.2421875 C-16.85016706 -2.70875116 -10.16638257 -2.71206852 0 0 Z " fill="#494C78" transform="translate(52,67)"/>
<path d="M0 0 C10.47548341 -0.36972294 10.47548341 -0.36972294 12.83984375 1.296875 C14.74350336 4.09147294 14.23013217 6.72061661 14 10 C13.773125 10.680625 13.54625 11.36125 13.3125 12.0625 C12.8082306 15.18897031 14.53355726 17.30174536 16 20 C16 20.66 16 21.32 16 22 C14.02 22 12.04 22 10 22 C9.32880451 20.5437455 8.66318193 19.08492133 8 17.625 C7.62875 16.81289062 7.2575 16.00078125 6.875 15.1640625 C6 13 6 13 6 11 C6.66 11 7.32 11 8 11 C8 9.02 8 7.04 8 5 C7.01 4.67 6.02 4.34 5 4 C5 9.94 5 15.88 5 22 C3.35 21.67 1.7 21.34 0 21 C0 14.07 0 7.14 0 0 Z " fill="#C51A1E" transform="translate(187,75)"/>
<path d="M0 0 C0.99 0.66 1.98 1.32 3 2 C4.65549531 2.38499891 6.3222433 2.72793135 8 3 C8 3.66 8 4.32 8 5 C6.35 5.33 4.7 5.66 3 6 C2.67386719 7.14339844 2.34773438 8.28679687 2.01171875 9.46484375 C1.57096014 10.95592076 1.12951844 12.44679597 0.6875 13.9375 C0.47416016 14.69224609 0.26082031 15.44699219 0.04101562 16.22460938 C-0.54649851 18.18006686 -1.26564705 20.09481954 -2 22 C-5.0205592 23.00685307 -6.47076266 23.02876261 -9.5625 22.6875 C-10.34753906 22.60886719 -11.13257812 22.53023437 -11.94140625 22.44921875 C-14 22 -14 22 -16 20 C-16.265625 17.90625 -16.265625 17.90625 -16.25 15.5 C-16.25515625 14.7059375 -16.2603125 13.911875 -16.265625 13.09375 C-16 11 -16 11 -14 9 C-11.31160615 8.73008094 -8.70858064 8.91262643 -6 9 C-6 7.68 -6 6.36 -6 5 C-7.6045556 5.14148989 -9.20863767 5.28835686 -10.8125 5.4375 C-12.15248047 5.55931641 -12.15248047 5.55931641 -13.51953125 5.68359375 C-16.12743559 5.93489767 -16.12743559 5.93489767 -19 7 C-19 6.01 -19 5.02 -19 4 C-17.04310963 3.63794536 -15.08442332 3.28558579 -13.125 2.9375 C-12.03445312 2.74027344 -10.94390625 2.54304688 -9.8203125 2.33984375 C-7 2 -7 2 -5 3 C-4.5859375 5.72265625 -4.5859375 5.72265625 -4.375 9.0625 C-4.30023438 10.16722656 -4.22546875 11.27195312 -4.1484375 12.41015625 C-4.09945312 13.26480469 -4.05046875 14.11945313 -4 15 C-3.87625 14.195625 -3.7525 13.39125 -3.625 12.5625 C-3.41875 11.716875 -3.2125 10.87125 -3 10 C-2.34 9.67 -1.68 9.34 -1 9 C0.37891032 6.3147536 1.11387536 4.70223141 0.625 1.6875 C0.41875 1.130625 0.2125 0.57375 0 0 Z " fill="#FBEEEE" transform="translate(119,70)"/>
<path d="M0 0 C1.2065625 0.0309375 1.2065625 0.0309375 2.4375 0.0625 C2.870625 1.2175 3.30375 2.3725 3.75 3.5625 C4.15798828 4.64724609 4.15798828 4.64724609 4.57421875 5.75390625 C5.14504832 7.28042333 5.71025542 8.80905593 6.26953125 10.33984375 C7.37949242 13.97605977 7.37949242 13.97605977 9.4375 17.0625 C9.47813832 18.72867115 9.480221 20.39638095 9.4375 22.0625 C7.4575 22.0625 5.4775 22.0625 3.4375 22.0625 C3.4375 20.7425 3.4375 19.4225 3.4375 18.0625 C1.1275 18.0625 -1.1825 18.0625 -3.5625 18.0625 C-3.5625 19.0525 -3.5625 20.0425 -3.5625 21.0625 C-5.2125 21.0625 -6.8625 21.0625 -8.5625 21.0625 C-6.95535714 0.16964286 -6.95535714 0.16964286 0 0 Z " fill="#D84245" transform="translate(124.5625,74.9375)"/>
<path d="M0 0 C3.25100777 0.0810513 6.50016335 0.19387649 9.75 0.3125 C10.67039062 0.33505859 11.59078125 0.35761719 12.5390625 0.38085938 C13.42851563 0.41630859 14.31796875 0.45175781 15.234375 0.48828125 C16.05131836 0.51446533 16.86826172 0.54064941 17.70996094 0.56762695 C20.45994617 1.08684058 21.90229473 2.19083451 24 4 C23.01 4 22.02 4 21 4 C20.82984375 4.556875 20.6596875 5.11375 20.484375 5.6875 C18.76684063 11.09590609 16.64657745 15.98062896 14 21 C10.62981857 16.95382288 9.12193207 12.46101867 7.28125 7.58203125 C6.64703125 6.30392578 6.64703125 6.30392578 6 5 C5.01 4.67 4.02 4.34 3 4 C3 10.93 3 17.86 3 25 C3.66 25 4.32 25 5 25 C5 22.36 5 19.72 5 17 C5.33 17 5.66 17 6 17 C6 19.97 6 22.94 6 26 C4.68 26 3.36 26 2 26 C1.97494385 25.28344238 1.9498877 24.56688477 1.92407227 23.82861328 C1.80830249 20.59388486 1.68549031 17.35946159 1.5625 14.125 C1.52318359 12.99707031 1.48386719 11.86914062 1.44335938 10.70703125 C1.40146484 9.63066406 1.35957031 8.55429688 1.31640625 7.4453125 C1.27974854 6.45031738 1.24309082 5.45532227 1.20532227 4.43017578 C1.15040468 1.99220499 1.15040468 1.99220499 0 0 Z " fill="#F2F2F2" transform="translate(44,71)"/>
<path d="M0 0 C10.47548341 -0.36972294 10.47548341 -0.36972294 12.83984375 1.296875 C14.74350336 4.09147294 14.23013217 6.72061661 14 10 C13.773125 10.680625 13.54625 11.36125 13.3125 12.0625 C12.8082306 15.18897031 14.53355726 17.30174536 16 20 C16 20.66 16 21.32 16 22 C14.35 22 12.7 22 11 22 C7.21996701 16.04604246 6.53248757 11.89092794 8 5 C7.01 4.67 6.02 4.34 5 4 C5 9.61 5 15.22 5 21 C3.35 21 1.7 21 0 21 C0 14.07 0 7.14 0 0 Z " fill="#D0181B" transform="translate(136,75)"/>
<path d="M0 0 C7 0 7 0 9.40625 1.59375 C11.47763777 4.72113938 11.5342338 6.76851564 11.5 10.5 C11.5103125 11.6240625 11.520625 12.748125 11.53125 13.90625 C11 17 11 17 9.40625 19.34375 C7 21 7 21 0 22 C0 14.74 0 7.48 0 0 Z " fill="#F0F2F7" transform="translate(178,41)"/>
<path d="M0 0 C0.33 0 0.66 0 1 0 C1.33 10.89 1.66 21.78 2 33 C2.66 32.34 3.32 31.68 4 31 C4.66 31.33 5.32 31.66 6 32 C6 21.44 6 10.88 6 0 C6.33 0 6.66 0 7 0 C7 12.54 7 25.08 7 38 C20.27513799 38.01253374 20.27513799 38.01253374 32 33 C33.79246503 30.7115378 34.81049033 28.68932622 36 26 C36.66666667 28.66666667 37.33333333 31.33333333 38 34 C35.92446352 34.5534764 34.15634036 35 32 35 C32 35.66 32 36.32 32 37 C23.8216322 39.56816036 16.41931148 41.33555844 8 39 C8 39.66 8 40.32 8 41 C5.89504036 40.93994409 3.79088565 40.85114641 1.6875 40.75 C0.51574219 40.70359375 -0.65601563 40.6571875 -1.86328125 40.609375 C-5 40 -5 40 -6.91796875 37.953125 C-7.45357422 36.98632812 -7.45357422 36.98632812 -8 36 C-5.36 36.33 -2.72 36.66 0 37 C0 24.79 0 12.58 0 0 Z " fill="#D0D2E7" transform="translate(162,33)"/>
<path d="M0 0 C4.29 0 8.58 0 13 0 C13 1.32 13 2.64 13 4 C10.36 4 7.72 4 5 4 C5 5.32 5 6.64 5 8 C6.98 8 8.96 8 11 8 C11 9.32 11 10.64 11 12 C9.02 12 7.04 12 5 12 C5 13.65 5 15.3 5 17 C7.64 17 10.28 17 13 17 C13 18.32 13 19.64 13 21 C8.71 21 4.42 21 0 21 C0 14.07 0 7.14 0 0 Z " fill="#C22022" transform="translate(171,75)"/>
<path d="M0 0 C2.79224194 0.3079239 5.58371427 0.62112437 8.375 0.9375 C9.1690625 1.02451172 9.963125 1.11152344 10.78125 1.20117188 C16.7734375 1.88671875 16.7734375 1.88671875 19 3 C20.33714904 2.6823188 21.66993606 2.34614855 23 2 C24.68558459 1.90946307 26.37449336 1.86990797 28.0625 1.875 C28.91972656 1.87242188 29.77695313 1.86984375 30.66015625 1.8671875 C33 2 33 2 36 3 C36 3.66 36 4.32 36 5 C16.86 5 -2.28 5 -22 5 C-18.04398448 1.04398448 -18.04398448 1.04398448 -13.84765625 0.8671875 C-12.59855469 0.86976562 -11.34945312 0.87234375 -10.0625 0.875 C-8.81597656 0.87242188 -7.56945312 0.86984375 -6.28515625 0.8671875 C-3 1 -3 1 0 2 C0 1.34 0 0.68 0 0 Z " fill="#F6FDF9" transform="translate(153,97)"/>
<path d="M0 0 C5.95507399 0.3916035 10.62819824 1.37124595 16 4 C15.67 4.99 15.34 5.98 15 7 C14.34773438 7.08636719 13.69546875 7.17273438 13.0234375 7.26171875 C6.79795615 8.2467128 6.79795615 8.2467128 1.625 11.625 C-1 14 -1 14 -5 14 C-4.67 15.98 -4.34 17.96 -4 20 C-4.99 19.67 -5.98 19.34 -7 19 C-7.85883663 11.39316125 -6.16185881 7.90742309 -1.53125 1.87109375 C-1.0259375 1.25363281 -0.520625 0.63617188 0 0 Z " fill="#D20D0C" transform="translate(41,12)"/>
<path d="M0 0 C2.94862245 2.94862245 4.98807747 5.96977267 7.125 9.5 C7.48464844 10.08136719 7.84429687 10.66273437 8.21484375 11.26171875 C9.78032311 13.82394527 11.04684905 16.14054714 12 19 C13.98 19.33 15.96 19.66 18 20 C17.401875 20.28875 16.80375 20.5775 16.1875 20.875 C12.86946297 22.58141905 11.09513006 23.85730492 9 27 C7 26 7 26 6.3125 24.0625 C6 22 6 22 7 20 C6.17242187 20.24556641 6.17242187 20.24556641 5.328125 20.49609375 C2.73385993 21.05760414 0.40164589 21.09739008 -2.25 21.0625 C-3.14203125 21.05347656 -4.0340625 21.04445313 -4.953125 21.03515625 C-5.62859375 21.02355469 -6.3040625 21.01195313 -7 21 C-7 20.67 -7 20.34 -7 20 C-5.02 19.67 -3.04 19.34 -1 19 C-0.67 12.73 -0.34 6.46 0 0 Z " fill="#F1F3F8" transform="translate(143,51)"/>
<path d="M0 0 C3.96 0 7.92 0 12 0 C12 0.99 12 1.98 12 3 C9.69 3 7.38 3 5 3 C5 4.32 5 5.64 5 7 C6.98 7 8.96 7 11 7 C11 8.32 11 9.64 11 11 C9.02 11 7.04 11 5 11 C5 12.65 5 14.3 5 16 C7.64 16 10.28 16 13 16 C13 17.32 13 18.64 13 20 C8.71 20 4.42 20 0 20 C0 13.4 0 6.8 0 0 Z " fill="#C22024" transform="translate(155,76)"/>
<path d="M0 0 C1.32 0.33 2.64 0.66 4 1 C5.25827326 3.35742063 6.24838186 5.52170381 7.1875 8 C8.60394113 12.31576713 8.60394113 12.31576713 11 16 C14.465 8.575 14.465 8.575 18 1 C18.99 1 19.98 1 21 1 C21 7.6 21 14.2 21 21 C20.34 21 19.68 21 19 21 C18.67 16.38 18.34 11.76 18 7 C16.02 11.62 14.04 16.24 12 21 C9 20 9 20 7.8671875 18.07421875 C7.53976563 17.28660156 7.21234375 16.49898437 6.875 15.6875 C6.54242188 14.90761719 6.20984375 14.12773438 5.8671875 13.32421875 C5.08449614 11.22646488 4.48940602 9.18235134 4 7 C3.34 7 2.68 7 2 7 C2 11.62 2 16.24 2 21 C1.34 21 0.68 21 0 21 C0 14.07 0 7.14 0 0 Z " fill="#797979" transform="translate(47,75)"/>
<path d="M0 0 C0 1.32 0 2.64 0 4 C-2.05078125 4.22786458 -4.1015625 4.45572917 -6.15234375 4.68359375 C-8.01140229 4.81886614 -8.01140229 4.81886614 -9 6 C-9.0979057 7.49738124 -9.12974864 8.99942892 -9.125 10.5 C-9.12757812 11.3146875 -9.13015625 12.129375 -9.1328125 12.96875 C-9.2245178 14.99530377 -9.2245178 14.99530377 -8 16 C-6.65252916 16.23075082 -5.29622435 16.41153063 -3.9375 16.5625 C-2.638125 16.706875 -1.33875 16.85125 0 17 C0 18.32 0 19.64 0 21 C-9.82888583 21.76258597 -9.82888583 21.76258597 -13.6875 19.25 C-15.73526144 14.17935263 -15.84485711 9.38120702 -15 4 C-11.37563871 -1.31572989 -5.84461245 -0.40855543 0 0 Z " fill="#CC1317" transform="translate(113,75)"/>
<path d="M0 0 C1.32 0.33 2.64 0.66 4 1 C4.33 2.65 4.66 4.3 5 6 C5.66 6 6.32 6 7 6 C7.66 5.34 8.32 4.68 9 4 C12.875 5.75 12.875 5.75 14 8 C14.14716542 9.80843663 14.2210887 11.62331566 14.25 13.4375 C14.28867188 14.88962891 14.28867188 14.88962891 14.328125 16.37109375 C14 19 14 19 12.609375 20.84765625 C11 22 11 22 9 22 C7.97980427 21.0206121 6.97850195 20.02104551 6 19 C5.67 19 5.34 19 5 19 C4.89042969 18.26394531 4.78085938 17.52789062 4.66796875 16.76953125 C3.81507976 11.52045023 3.0602349 7.45125077 0 3 C0 2.01 0 1.02 0 0 Z " fill="#091361" transform="translate(185,37)"/>
<path d="M0 0 C4.62 0 9.24 0 14 0 C13.67 1.32 13.34 2.64 13 4 C13 3.01 13 2.02 13 1 C9.04 1 5.08 1 1 1 C1 7.6 1 14.2 1 21 C5.29 21 9.58 21 14 21 C14 21.33 14 21.66 14 22 C9.05 22 4.1 22 -1 22 C-1 22.66 -1 23.32 -1 24 C-6.61 23.34 -12.22 22.68 -18 22 C-18 21.67 -18 21.34 -18 21 C-16.35 21 -14.7 21 -13 21 C-13 15.39 -13 9.78 -13 4 C-11.68 4.33 -10.36 4.66 -9 5 C-9.10699219 5.56847656 -9.21398437 6.13695313 -9.32421875 6.72265625 C-10.21529089 12.46192735 -10.1200082 16.00798688 -7 21 C-4.42267086 22.05167527 -4.42267086 22.05167527 -2 22 C-2 21.34 -2 20.68 -2 20 C-1.34 20 -0.68 20 0 20 C0 13.4 0 6.8 0 0 Z " fill="#F4B0B0" transform="translate(154,75)"/>
<path d="M0 0 C3.28186266 0.56583839 4.89184922 1.41272404 7 4 C8.95404966 7.22811866 9.29702879 9.74565375 9.3125 13.5 C9.32925781 14.4384375 9.34601563 15.376875 9.36328125 16.34375 C8.94768059 19.38255053 8.01958576 20.74062173 6 23 C5.67 22.67 5.34 22.34 5 22 C4.3503125 22.99 4.3503125 22.99 3.6875 24 C3.130625 24.66 2.57375 25.32 2 26 C1.01 26 0.02 26 -1 26 C-1 25.01 -1 24.02 -1 23 C-3.47266765 23.34444881 -3.47266765 23.34444881 -6 24 C-6.33 24.66 -6.66 25.32 -7 26 C-7.66 25.34 -8.32 24.68 -9 24 C-8.39671875 23.69707031 -7.7934375 23.39414062 -7.171875 23.08203125 C-0.5715974 19.68664783 -0.5715974 19.68664783 4 14 C4.4901127 9.42561479 4.00356948 6.13236205 2 2 C1.34 2 0.68 2 0 2 C0 1.34 0 0.68 0 0 Z " fill="#222A6F" transform="translate(77,36)"/>
<path d="M0 0 C0.33 0 0.66 0 1 0 C1.061875 0.721875 1.12375 1.44375 1.1875 2.1875 C2.24456647 5.84657625 4.20550071 7.49211602 7 10 C7.99 9.34 8.98 8.68 10 8 C9.46543012 12.54384397 7.85857428 15.44609684 5 19 C0.19198664 22.10517529 0.19198664 22.10517529 -3.125 21.8125 C-5.12673573 20.94508118 -7.07673629 20.03031985 -9 19 C-5.04 18.505 -5.04 18.505 -1 18 C-1 17.34 -1 16.68 -1 16 C-3.97 15.505 -3.97 15.505 -7 15 C-6.01 14.34 -5.02 13.68 -4 13 C-1.74634036 11.21741411 -1.07743906 10.37537256 -0.48828125 7.51953125 C-0.43027344 6.62621094 -0.37226563 5.73289062 -0.3125 4.8125 C-0.24675781 3.91144531 -0.18101562 3.01039062 -0.11328125 2.08203125 C-0.07589844 1.39496094 -0.03851563 0.70789062 0 0 Z " fill="#161F66" transform="translate(189,48)"/>
<path d="M0 0 C2.64 0 5.28 0 8 0 C7.67 0.66 7.34 1.32 7 2 C6.91550372 3.7404417 6.89276976 5.48409722 6.90234375 7.2265625 C6.90556641 8.2578125 6.90878906 9.2890625 6.91210938 10.3515625 C6.92048828 11.43179688 6.92886719 12.51203125 6.9375 13.625 C6.94201172 14.71296875 6.94652344 15.8009375 6.95117188 16.921875 C6.96298224 19.61463789 6.97945222 22.30729188 7 25 C4.70986347 21.5647952 4.82157027 20.014669 5 16 C4.34 16.33 3.68 16.66 3 17 C2.34 17.33 1.68 17.66 1 18 C1 18.66 1 19.32 1 20 C0.01 20 -0.98 20 -2 20 C-1.67 19.34 -1.34 18.68 -1 18 C-0.84995027 16.6265365 -0.75161994 15.2471474 -0.68359375 13.8671875 C-0.64169922 13.06152344 -0.59980469 12.25585938 -0.55664062 11.42578125 C-0.51732422 10.58402344 -0.47800781 9.74226563 -0.4375 8.875 C-0.39431641 8.02550781 -0.35113281 7.17601562 -0.30664062 6.30078125 C-0.20045764 4.20071777 -0.09971503 2.10038052 0 0 Z " fill="#0F1863" transform="translate(154,33)"/>
<path d="M0 0 C0.99 0.33 1.98 0.66 3 1 C1.35 2.65 -0.3 4.3 -2 6 C-1.34 7.32 -0.68 8.64 0 10 C0.66 10 1.32 10 2 10 C1.67 10.99 1.34 11.98 1 13 C-1.97 12.505 -1.97 12.505 -5 12 C-4.34 14.97 -3.68 17.94 -3 21 C-7.455 20.01 -7.455 20.01 -12 19 C-12.05395478 17.37536158 -12.09277195 15.75021459 -12.125 14.125 C-12.14820313 13.22007813 -12.17140625 12.31515625 -12.1953125 11.3828125 C-12 9 -12 9 -10 7 C-9.67 8.32 -9.34 9.64 -9 11 C-8.773125 10.4225 -8.54625 9.845 -8.3125 9.25 C-6.65151778 6.40260191 -4.68475439 4.87932807 -2 3 C-1.34 3 -0.68 3 0 3 C0 2.01 0 1.02 0 0 Z " fill="#D9D9EC" transform="translate(52,22)"/>
<path d="M0 0 C0.33 0 0.66 0 1 0 C1.144375 0.9075 1.28875 1.815 1.4375 2.75 C1.86409473 5.21476956 2.35074221 7.58847107 3 10 C2.01 9.67 1.02 9.34 0 9 C-0.66 13.29 -1.32 17.58 -2 22 C-2.33 22 -2.66 22 -3 22 C-3 19.69 -3 17.38 -3 15 C-6.63 15 -10.26 15 -14 15 C-14 12.69 -14 10.38 -14 8 C-9.38 8 -4.76 8 0 8 C0 5.36 0 2.72 0 0 Z " fill="#D9DBEA" transform="translate(115,33)"/>
<path d="M0 0 C-0.33 0.99 -0.66 1.98 -1 3 C-1.99 3 -2.98 3 -4 3 C-4 3.99 -4 4.98 -4 6 C-5.72293372 7.44163842 -7.56009952 8.53720446 -9.46875 9.71875 C-9.9740625 10.1415625 -10.479375 10.564375 -11 11 C-11 11.99 -11 12.98 -11 14 C-11.66 14 -12.32 14 -13 14 C-13.33 13.01 -13.66 12.02 -14 11 C-15.58272601 12.58272601 -15.34735747 14.38034003 -15.5625 16.5625 C-15.64628906 17.38878906 -15.73007812 18.21507813 -15.81640625 19.06640625 C-15.87699219 19.70449219 -15.93757813 20.34257813 -16 21 C-16.99 21 -17.98 21 -19 21 C-18.01 17.04 -17.02 13.08 -16 9 C-16.99 8.34 -17.98 7.68 -19 7 C-18.2575 6.566875 -17.515 6.13375 -16.75 5.6875 C-14.04715245 4.09346576 -14.04715245 4.09346576 -11.875 2.375 C-8.08174632 -0.40671937 -4.53934894 -0.08564809 0 0 Z " fill="#AE92AA" transform="translate(56,19)"/>
<path d="M0 0 C3.84777518 2.4824356 3.84777518 2.4824356 4.625 5.125 C4.74875 5.74375 4.8725 6.3625 5 7 C5.66 7.33 6.32 7.66 7 8 C6.34 8.969375 5.68 9.93875 5 10.9375 C2.90886852 13.5299253 2.90886852 13.5299253 3 15 C4.7634375 14.938125 4.7634375 14.938125 6.5625 14.875 C10.72409674 14.86016365 14.06487667 15.68829222 18 17 C14.55572 19.29618667 14.01271671 19.11447194 10.125 18.5 C6.15473005 17.99500952 3.58989679 17.96572515 0 20 C-2.46328846 16.3050673 -2.69466527 13.28915418 -2 9 C-0.88342737 6.69403479 0.38402333 5.01997083 2 3 C0.02 3.99 0.02 3.99 -2 5 C-2 4.01 -2 3.02 -2 2 C-1.34 2 -0.68 2 0 2 C0 1.34 0 0.68 0 0 Z " fill="#F7F1F1" transform="translate(30,33)"/>
<path d="M0 0 C4.92178161 0.43427485 7.45459675 2.69095697 11 6 C13.20914 9.31371 13.22481553 10.3446021 13.125 14.1875 C13.10695313 15.08855469 13.08890625 15.98960938 13.0703125 16.91796875 C13.03550781 17.94857422 13.03550781 17.94857422 13 19 C11.68 19.33 10.36 19.66 9 20 C9 18.02 9 16.04 9 14 C7.35 13.67 5.7 13.34 4 13 C3.87882812 12.14535156 3.75765625 11.29070313 3.6328125 10.41015625 C3.46523438 9.30542969 3.29765625 8.20070313 3.125 7.0625 C2.96257813 5.96035156 2.80015625 4.85820312 2.6328125 3.72265625 C2.42398438 2.82417969 2.21515625 1.92570312 2 1 C1.34 0.67 0.68 0.34 0 0 Z " fill="#091158" transform="translate(57,21)"/>
<path d="M0 0 C0.66 0 1.32 0 2 0 C2 5.61 2 11.22 2 17 C-1.3 17 -4.6 17 -8 17 C-8 15.35 -8 13.7 -8 12 C-6.02 12 -4.04 12 -2 12 C-2 10.68 -2 9.36 -2 8 C-3.98 8 -5.96 8 -8 8 C-8 6.68 -8 5.36 -8 4 C-5.36 4 -2.72 4 0 4 C0 2.68 0 1.36 0 0 Z " fill="#FEDCDA" transform="translate(168,75)"/>
<path d="M0 0 C2 2 2 2 2 5 C2.66 5 3.32 5 4 5 C4.66 4.34 5.32 3.68 6 3 C6 9.6 6 16.2 6 23 C5.01 23 4.02 23 3 23 C-0.09045226 17.56080402 -0.09045226 17.56080402 0.3125 15.0625 C0.6528125 14.0415625 0.6528125 14.0415625 1 13 C1.25015873 9.41642759 1.25015873 9.41642759 1 6 C-1.58926331 3.41073669 -3.02705279 3.62601957 -6.625 3.375 C-8.12933594 3.26285156 -8.12933594 3.26285156 -9.6640625 3.1484375 C-10.43492187 3.09945312 -11.20578125 3.05046875 -12 3 C-12 2.67 -12 2.34 -12 2 C-11.21753906 1.93941406 -10.43507812 1.87882812 -9.62890625 1.81640625 C-8.61699219 1.73261719 -7.60507813 1.64882812 -6.5625 1.5625 C-5.55316406 1.48128906 -4.54382813 1.40007812 -3.50390625 1.31640625 C-1.06359221 1.26788532 -1.06359221 1.26788532 0 0 Z " fill="#FEF1EE" transform="translate(148,72)"/>
<path d="M0 0 C5.61 0 11.22 0 17 0 C17 0.99 17 1.98 17 3 C15.906875 2.979375 14.81375 2.95875 13.6875 2.9375 C10.05615809 2.81455548 10.05615809 2.81455548 7 4 C7 3.34 7 2.68 7 2 C3.87802522 3.3089572 3.87802522 3.3089572 2 6 C1.84479443 8.32273159 1.74980833 10.64959313 1.68359375 12.9765625 C1.66281265 13.66181 1.64203156 14.3470575 1.62062073 15.05307007 C1.55519815 17.24361069 1.49627446 19.43427189 1.4375 21.625 C1.39430782 23.1093875 1.3506933 24.59376278 1.30664062 26.078125 C1.19872862 29.71862818 1.09960219 33.35922195 1 37 C5.95 37 10.9 37 16 37 C16 37.33 16 37.66 16 38 C10.72 38 5.44 38 0 38 C0 25.46 0 12.92 0 0 Z " fill="#212761" transform="translate(169,33)"/>
<path d="M0 0 C6.93 0 13.86 0 21 0 C21 1.98 21 3.96 21 6 C17.7 6 14.4 6 11 6 C11 5.67 11 5.34 11 5 C13.97 5 16.94 5 20 5 C20 4.01 20 3.02 20 2 C18.02 2.33 16.04 2.66 14 3 C9.71 3 5.42 3 1 3 C1.33 13.56 1.66 24.12 2 35 C1.34 35 0.68 35 0 35 C0 23.45 0 11.9 0 0 Z " fill="#050D53" transform="translate(93,34)"/>
<path d="M0 0 C4.66154042 1.49835228 5.86610751 4.88463591 8 9 C9.65 6.03 11.3 3.06 13 0 C13.99 0 14.98 0 16 0 C15.34 1.98 14.68 3.96 14 6 C13.34 6 12.68 6 12 6 C10.08373163 10.98229776 9.4452885 15.72684667 9 21 C8.01 21 7.02 21 6 21 C5.938125 19.72125 5.87625 18.4425 5.8125 17.125 C5.29218789 12.15050092 3.45682194 8.40767484 1.05859375 4.06640625 C0 2 0 2 0 0 Z " fill="#828282" transform="translate(72,75)"/>
<path d="M0 0 C3 0.125 3 0.125 4 1.125 C4.66 1.125 5.32 1.125 6 1.125 C6 2.115 6 3.105 6 4.125 C-0.24273068 6.6043824 -5.28299653 7.44485731 -12 7.125 C-12 6.465 -12 5.805 -12 5.125 C-13.98 5.125 -15.96 5.125 -18 5.125 C-16.68 4.795 -15.36 4.465 -14 4.125 C-14 3.465 -14 2.805 -14 2.125 C-12.93458984 2.03412109 -12.93458984 2.03412109 -11.84765625 1.94140625 C-10.46900391 1.81572266 -10.46900391 1.81572266 -9.0625 1.6875 C-8.14597656 1.60628906 -7.22945312 1.52507813 -6.28515625 1.44140625 C-3.27948111 1.02523585 -3.27599078 0.13649962 0 0 Z " fill="#071165" transform="translate(65,61.875)"/>
<path d="M0 0 C0.99 0.33 1.98 0.66 3 1 C2.34 1 1.68 1 1 1 C1 1.763125 1 2.52625 1 3.3125 C1 5.20833333 1 7.10416667 1 9 C-3.62 9 -8.24 9 -13 9 C-13.33 7.02 -13.66 5.04 -14 3 C-13 2 -13 2 -10.4375 1.9375 C-9.2309375 1.9684375 -9.2309375 1.9684375 -8 2 C-8 2.66 -8 3.32 -8 4 C-5.64828869 3.40138258 -3.3140622 2.73075648 -1 2 C-0.67 1.34 -0.34 0.68 0 0 Z " fill="#F8FBFB" transform="translate(61,53)"/>
<path d="M0 0 C0.33 0 0.66 0 1 0 C1 1.98 1 3.96 1 6 C2.98 6.495 2.98 6.495 5 7 C5 7.66 5 8.32 5 9 C5.66 9 6.32 9 7 9 C6.67 8.236875 6.34 7.47375 6 6.6875 C5 4 5 4 5 1 C6.65 1.33 8.3 1.66 10 2 C9.01 2.33 8.02 2.66 7 3 C7 3.66 7 4.32 7 5 C7.66 5 8.32 5 9 5 C11.28776211 7.90369806 11.98419298 9.87128566 12.4375 13.5625 C11.93626913 17.50074253 11.07053382 18.60114545 8 21 C7 18 7 18 7 16 C5.24271386 11.63998116 5.24271386 11.63998116 1.8125 8.625 C1.214375 8.41875 0.61625 8.2125 0 8 C0 5.36 0 2.72 0 0 Z " fill="#DBE1EE" transform="translate(70,33)"/>
<path d="M0 0 C1.65 0 3.3 0 5 0 C4.67 6.93 4.34 13.86 4 21 C2.68 21 1.36 21 0 21 C0 14.07 0 7.14 0 0 Z " fill="#CB1C20" transform="translate(188,76)"/>
<path d="M0 0 C0.99 0 1.98 0 3 0 C5.70071112 6.27980887 7.70024676 12.28460827 9 19 C7.68 18.67 6.36 18.34 5 18 C5 17.01 5 16.02 5 15 C2.69 15 0.38 15 -2 15 C-2 14.01 -2 13.02 -2 12 C-0.68 12 0.64 12 2 12 C2 9.03 2 6.06 2 3 C1.01 3 0.02 3 -1 3 C-0.67 2.01 -0.34 1.02 0 0 Z " fill="#C6171E" transform="translate(124,77)"/>
<path d="M0 0 C2.10267836 4.20535671 1.18492744 9.75468759 1.1875 14.375 C1.19974609 15.52484375 1.21199219 16.6746875 1.22460938 17.859375 C1.22654297 18.96539062 1.22847656 20.07140625 1.23046875 21.2109375 C1.23457764 22.22462402 1.23868652 23.23831055 1.24291992 24.28271484 C0.99778067 27.02482522 0.40692215 28.66151904 -1 31 C-1.33 31 -1.66 31 -2 31 C-2.04947698 27.06734104 -2.08575578 23.13480286 -2.10986328 19.2019043 C-2.12485495 17.20680382 -2.15026731 15.21179054 -2.17578125 13.21679688 C-2.18222656 11.96318359 -2.18867188 10.70957031 -2.1953125 9.41796875 C-2.20578613 8.26063232 -2.21625977 7.1032959 -2.22705078 5.91088867 C-2 3 -2 3 0 0 Z " fill="#030D64" transform="translate(172,36)"/>
<path d="M0 0 C2.79703452 1.39851726 2.86808055 3.13690964 4 6 C4.8353125 7.0209375 4.8353125 7.0209375 5.6875 8.0625 C7 10 7 10 6.875 12.125 C6 14 6 14 3 16 C2.01 16 1.02 16 0 16 C0 15.34 0 14.68 0 14 C-0.66 14 -1.32 14 -2 14 C-2.20086443 10.28400809 -2.1519437 9.22791555 0 6 C-0.40929986 3.94603274 -0.40929986 3.94603274 -1 2 C-0.67 1.34 -0.34 0.68 0 0 Z " fill="#0C1563" transform="translate(142,34)"/>
<path d="M0 0 C0.70125 0.22558594 1.4025 0.45117188 2.125 0.68359375 C2.125 1.01359375 2.125 1.34359375 2.125 1.68359375 C0.92875 1.72484375 -0.2675 1.76609375 -1.5 1.80859375 C-6.63427349 2.40030967 -8.52105572 4.93037039 -11.875 8.68359375 C-12.535 8.68359375 -13.195 8.68359375 -13.875 8.68359375 C-13.875 9.34359375 -13.875 10.00359375 -13.875 10.68359375 C-15.195 10.35359375 -16.515 10.02359375 -17.875 9.68359375 C-17.12356705 5.11406908 -14.78175967 2.90624612 -11.3515625 -0.03125 C-7.36653009 -2.09919268 -4.198214 -1.10089036 0 0 Z " fill="#C7CAE7" transform="translate(47.875,66.31640625)"/>
<path d="M0 0 C7.26 0 14.52 0 22 0 C22 2.64 22 5.28 22 8 C17.38 8 12.76 8 8 8 C8 10.31 8 12.62 8 15 C7.34 15 6.68 15 6 15 C5.63400848 8.53414979 5.63400848 8.53414979 7.15625 6.3125 C9.66614008 4.52579859 11.63380241 4.49212927 14.6875 4.3125 C16.17830078 4.21388672 16.17830078 4.21388672 17.69921875 4.11328125 C18.45847656 4.07589844 19.21773437 4.03851563 20 4 C20.33 4.99 20.66 5.98 21 7 C21 5.02 21 3.04 21 1 C14.07 1 7.14 1 0 1 C0 0.67 0 0.34 0 0 Z " fill="#272F6C" transform="translate(93,33)"/>
<path d="M0 0 C2.97 0.495 2.97 0.495 6 1 C6 1.66 6 2.32 6 3 C7.32 3 8.64 3 10 3 C9.67 4.98 9.34 6.96 9 9 C7.3125 9.8125 7.3125 9.8125 5 10 C2.25 7.875 2.25 7.875 0 5 C-0.3125 2.1875 -0.3125 2.1875 0 0 Z " fill="#0C125A" transform="translate(47,34)"/>
<path d="M0 0 C0.33 0 0.66 0 1 0 C1 7.26 1 14.52 1 22 C2.98 22 4.96 22 7 22 C7 22.33 7 22.66 7 23 C2.71 23 -1.58 23 -6 23 C-6 22.67 -6 22.34 -6 22 C-4.35 22 -2.7 22 -1 22 C-1.88352453 19.28146299 -2.76709955 16.57789785 -3.8359375 13.92578125 C-4.11695313 13.22839844 -4.39796875 12.53101562 -4.6875 11.8125 C-4.95949219 11.15894531 -5.23148438 10.50539063 -5.51171875 9.83203125 C-6 8 -6 8 -5 5 C-3.68 7.64 -2.36 10.28 -1 13 C-0.67 8.71 -0.34 4.42 0 0 Z " fill="#FDCDC8" transform="translate(135,75)"/>
<path d="M0 0 C0.66666667 2.66666667 1.33333333 5.33333333 2 8 C-0.07553648 8.5534764 -1.84365964 9 -4 9 C-4 9.66 -4 10.32 -4 11 C-19.71953029 15.93622633 -19.71953029 15.93622633 -26.25390625 12.98046875 C-26.83011719 12.65691406 -27.40632812 12.33335938 -28 12 C-27.02160156 11.97421875 -26.04320312 11.9484375 -25.03515625 11.921875 C-13.89551585 11.62246476 -13.89551585 11.62246476 -4 7 C-2.20364565 4.71283845 -1.19007171 2.69059691 0 0 Z " fill="#D4D3EA" transform="translate(198,59)"/>
<path d="M0 0 C0.66 0 1.32 0 2 0 C2 0.66 2 1.32 2 2 C3.32 2.33 4.64 2.66 6 3 C6.1953125 5.05078125 6.390625 7.1015625 6.5859375 9.15234375 C6.72257813 9.76207031 6.85921875 10.37179688 7 11 C7.66 11.33 8.32 11.66 9 12 C9 12.66 9 13.32 9 14 C8.34 14 7.68 14 7 14 C6.67 14.99 6.34 15.98 6 17 C4.99466333 15.37829621 3.99588093 13.75252763 3 12.125 C2.443125 11.22007813 1.88625 10.31515625 1.3125 9.3828125 C0 7 0 7 0 5 C0.66 5 1.32 5 2 5 C1.34 3.35 0.68 1.7 0 0 Z " fill="#081569" transform="translate(148,52)"/>
<path d="M0 0 C1.2065625 0.0309375 1.2065625 0.0309375 2.4375 0.0625 C3.0975 2.0425 3.7575 4.0225 4.4375 6.0625 C3.7775 5.7325 3.1175 5.4025 2.4375 5.0625 C2.4375 4.0725 2.4375 3.0825 2.4375 2.0625 C-0.68035113 2.70894661 -0.68035113 2.70894661 -1.5625 5.0625 C-0.5725 5.0625 0.4175 5.0625 1.4375 5.0625 C1.4375 8.0325 1.4375 11.0025 1.4375 14.0625 C0.1175 14.0625 -1.2025 14.0625 -2.5625 14.0625 C-2.2325 11.7525 -1.9025 9.4425 -1.5625 7.0625 C-2.5525 7.0625 -3.5425 7.0625 -4.5625 7.0625 C-3.5234375 0.0859375 -3.5234375 0.0859375 0 0 Z " fill="#D33838" transform="translate(124.5625,74.9375)"/>
<path d="M0 0 C1.77007714 -0.08114106 3.54122098 -0.13925505 5.3125 -0.1875 C6.29863281 -0.22230469 7.28476562 -0.25710937 8.30078125 -0.29296875 C11 0 11 0 12.85546875 1.32421875 C14 3 14 3 14 6 C9.38 5.34 4.76 4.68 0 4 C0 2.68 0 1.36 0 0 Z " fill="#DC060A" transform="translate(37,43)"/>
<path d="M0 0 C5.75 -0.125 5.75 -0.125 8 1 C8 2.98 8 4.96 8 7 C5.75 7.6875 5.75 7.6875 3 8 C0.6875 6.5625 0.6875 6.5625 -1 5 C-0.67 3.35 -0.34 1.7 0 0 Z " fill="#EAECF4" transform="translate(23,77)"/>
<path d="M0 0 C0.66 0.33 1.32 0.66 2 1 C2.12727273 7.61818182 2.12727273 7.61818182 1.3125 10.0625 C0.8082306 13.18897031 2.53355726 15.30174536 4 18 C4 18.66 4 19.32 4 20 C1.6875 20.3125 1.6875 20.3125 -1 20 C-2.875 17.625 -2.875 17.625 -4 15 C-3.67 14.34 -3.34 13.68 -3 13 C-2.34 13.33 -1.68 13.66 -1 14 C-1 11.36 -1 8.72 -1 6 C-0.34 6 0.32 6 1 6 C0.67 4.02 0.34 2.04 0 0 Z " fill="#C7242B" transform="translate(148,77)"/>
<path d="M0 0 C0.99 0.33 1.98 0.66 3 1 C3.33 1.99 3.66 2.98 4 4 C2.68 4.33 1.36 4.66 0 5 C0 6.98 0 8.96 0 11 C-1.70840281 9.36587557 -2.93453047 8.13093906 -4 6 C-4.33 11.94 -4.66 17.88 -5 24 C-5.33 24 -5.66 24 -6 24 C-6.33 17.4 -6.66 10.8 -7 4 C-4.69 3.34 -2.38 2.68 0 2 C0 1.34 0 0.68 0 0 Z " fill="#2C2F71" transform="translate(148,46)"/>
<path d="M0 0 C1.98 0.99 1.98 0.99 4 2 C4.33 1.34 4.66 0.68 5 0 C5.12375 0.639375 5.2475 1.27875 5.375 1.9375 C5.684375 2.9584375 5.684375 2.9584375 6 4 C6.66 4.33 7.32 4.66 8 5 C8.66 3.68 9.32 2.36 10 1 C10 5.62 10 10.24 10 15 C7.39717322 12.39717322 5.41692942 9.93311337 3.3125 6.9375 C2.68988281 6.05964844 2.06726563 5.18179688 1.42578125 4.27734375 C0 2 0 2 0 0 Z " fill="#E5E9F9" transform="translate(144,37)"/>
<path d="M0 0 C3.84777518 2.4824356 3.84777518 2.4824356 4.625 5.125 C4.74875 5.74375 4.8725 6.3625 5 7 C5.66 7.33 6.32 7.66 7 8 C5.02 10.97 5.02 10.97 3 14 C2.34 13.34 1.68 12.68 1 12 C0.01 12.33 -0.98 12.66 -2 13 C-1.43454163 9.04179141 -0.19097652 6.3340947 2 3 C0.02 3.99 0.02 3.99 -2 5 C-2 4.01 -2 3.02 -2 2 C-1.34 2 -0.68 2 0 2 C0 1.34 0 0.68 0 0 Z " fill="#F3E3E6" transform="translate(30,33)"/>
<path d="M0 0 C3 3.75 3 3.75 3 6 C3.99 5.67 4.98 5.34 6 5 C5.67 8.3 5.34 11.6 5 15 C4.34 13.68 3.68 12.36 3 11 C2.67 12.98 2.34 14.96 2 17 C1.34 16.67 0.68 16.34 0 16 C0 14.02 0 12.04 0 10 C-0.33 10 -0.66 10 -1 10 C-1.02689216 8.52093108 -1.04634621 7.04172517 -1.0625 5.5625 C-1.07410156 4.73878906 -1.08570312 3.91507813 -1.09765625 3.06640625 C-1 1 -1 1 0 0 Z " fill="#EBEEED" transform="translate(19,38)"/>
<path d="M0 0 C-0.33 0.66 -0.66 1.32 -1 2 C-3.21484375 2.34375 -3.21484375 2.34375 -5.9375 2.5 C-9.94706229 2.59786386 -9.94706229 2.59786386 -13 5 C-13.99 5 -14.98 5 -16 5 C-15.67 6.65 -15.34 8.3 -15 10 C-15.99 10 -16.98 10 -18 10 C-18.33 7.03 -18.66 4.06 -19 1 C-16.95857606 0.83038614 -14.91684689 0.66444404 -12.875 0.5 C-11.16957031 0.36078125 -11.16957031 0.36078125 -9.4296875 0.21875 C-6.27402851 0.0174779 -3.16078835 -0.03842904 0 0 Z " fill="#03106D" transform="translate(113,36)"/>
<path d="M0 0 C0.66 0 1.32 0 2 0 C2.33 0.66 2.66 1.32 3 2 C3.66 1.34 4.32 0.68 5 0 C5 0.99 5 1.98 5 3 C5.66 3 6.32 3 7 3 C10 8.75 10 8.75 10 11 C8.02 11 6.04 11 4 11 C3.32880451 9.5437455 2.66318193 8.08492133 2 6.625 C1.62875 5.81289062 1.2575 5.00078125 0.875 4.1640625 C0 2 0 2 0 0 Z " fill="#D11A21" transform="translate(193,86)"/>
<path d="M0 0 C3.63 0 7.26 0 11 0 C11 0.33 11 0.66 11 1 C7.7 1 4.4 1 1 1 C1.01160156 1.99902344 1.02320312 2.99804688 1.03515625 4.02734375 C1.04417969 5.31769531 1.05320312 6.60804687 1.0625 7.9375 C1.07410156 9.22527344 1.08570312 10.51304688 1.09765625 11.83984375 C1 15 1 15 0 16 C-2.67058851 16.14115161 -5.32432238 16.04247107 -8 16 C-8 15.34 -8 14.68 -8 14 C-6.02 14 -4.04 14 -2 14 C-2 11.03 -2 8.06 -2 5 C-1.67 5 -1.34 5 -1 5 C-0.67 3.35 -0.34 1.7 0 0 Z " fill="#41477D" transform="translate(101,55)"/>
<path d="M0 0 C0.81210937 0.47566406 0.81210937 0.47566406 1.640625 0.9609375 C4.4157149 2.18307974 6.73208098 2.40943436 9.75 2.625 C11.22726563 2.73714844 11.22726563 2.73714844 12.734375 2.8515625 C13.48203125 2.90054688 14.2296875 2.94953125 15 3 C15.33 2.01 15.66 1.02 16 0 C16.33 1.65 16.66 3.3 17 5 C14.41718164 5.22224251 11.83477813 5.42823488 9.25 5.625 C8.52039063 5.68945312 7.79078125 5.75390625 7.0390625 5.8203125 C3.14088264 6.10381649 0.29354678 6.27081383 -3 4 C-2.01 2.68 -1.02 1.36 0 0 Z " fill="#D30B0B" transform="translate(60,44)"/>
<path d="M0 0 C0 0.33 0 0.66 0 1 C-2.97 1 -5.94 1 -9 1 C-9 2.32 -9 3.64 -9 5 C-5.37 5.33 -1.74 5.66 2 6 C2 6.66 2 7.32 2 8 C1.030625 7.835 0.06125 7.67 -0.9375 7.5 C-5.29487763 6.86603727 -9.60630704 6.9103328 -14 7 C-13.14692254 3.51013765 -12.49480153 1.45238997 -9.8125 -1 C-5.97975178 -2.36275492 -3.73203728 -1.39036683 0 0 Z " fill="#C43636" transform="translate(46,42)"/>
<path d="M0 0 C1.65 0.33 3.3 0.66 5 1 C4.01 5.29 3.02 9.58 2 14 C0.68 14.33 -0.64 14.66 -2 15 C-2.33 12.36 -2.66 9.72 -3 7 C-1.68 6.67 -0.36 6.34 1 6 C0.67 4.02 0.34 2.04 0 0 Z " fill="#FBF7F8" transform="translate(36,26)"/>
<path d="M0 0 C1.231394 2.46278801 1.07159196 4.2795055 1 7 C1.99 7.33 2.98 7.66 4 8 C3.34 8.66 2.68 9.32 2 10 C0.68 10 -0.64 10 -2 10 C-1.67 11.98 -1.34 13.96 -1 16 C-1.99 15.67 -2.98 15.34 -4 15 C-4.51211281 8.59858988 -4.11888494 5.01989102 0 0 Z " fill="#C71F22" transform="translate(38,16)"/>
<path d="M0 0 C3.26189156 0.5623951 4.91134848 1.4140505 7 4 C8.04976964 7.14930893 8.10131595 9.38814456 8.0625 12.6875 C8.05347656 13.68136719 8.04445313 14.67523438 8.03515625 15.69921875 C8.02355469 16.45847656 8.01195313 17.21773437 8 18 C5.09037037 15.58325845 4.47899484 13.68985938 3.875 10 C3.39896358 7.19389055 2.90318521 4.70955563 2 2 C1.34 2 0.68 2 0 2 C0 1.34 0 0.68 0 0 Z " fill="#0E115A" transform="translate(77,36)"/>
<path d="M0 0 C0 1.32 0 2.64 0 4 C0.66 4 1.32 4 2 4 C2.33 5.32 2.66 6.64 3 8 C-1.455 7.01 -1.455 7.01 -6 6 C-6 4.02 -6 2.04 -6 0 C-3.50907189 -1.24546405 -2.58919267 -0.7767578 0 0 Z " fill="#ECC5CB" transform="translate(46,35)"/>
<path d="M0 0 C0.33 0 0.66 0 1 0 C1 6.93 1 13.86 1 21 C5.29 21 9.58 21 14 21 C14 21.33 14 21.66 14 22 C9.05 22.33 4.1 22.66 -1 23 C-1.33 21.02 -1.66 19.04 -2 17 C-1.34 17 -0.68 17 0 17 C0 11.39 0 5.78 0 0 Z " fill="#F3B2B1" transform="translate(170,75)"/>
<path d="M0 0 C1.32 0.33 2.64 0.66 4 1 C4.33 2.98 4.66 4.96 5 7 C4.195625 7.61875 3.39125 8.2375 2.5625 8.875 C-0.03874519 10.74164041 -0.03874519 10.74164041 -1 13 C-2.32 12.67 -3.64 12.34 -5 12 C-3.55922954 8.63820226 -1.75249979 6.40843732 1 4 C1.66 4 2.32 4 3 4 C3 3.34 3 2.68 3 2 C2.01 1.67 1.02 1.34 0 1 C0 0.67 0 0.34 0 0 Z " fill="#2E3170" transform="translate(30,63)"/>
<path d="M0 0 C1.12588014 0.95729916 2.2506715 1.91587895 3.375 2.875 C4.00148438 3.40867188 4.62796875 3.94234375 5.2734375 4.4921875 C6.55836651 5.61432007 7.79371975 6.79371975 9 8 C7.68 8 6.36 8 5 8 C4.34 7.34 3.68 6.68 3 6 C2.34 6 1.68 6 1 6 C1 7.65 1 9.3 1 11 C-0.70884005 9.37660195 -2.37446717 7.70680947 -4 6 C-4 5.34 -4 4.68 -4 4 C-3.34 4 -2.68 4 -2 4 C-2 3.34 -2 2.68 -2 2 C-1.34 2 -0.68 2 0 2 C0 1.34 0 0.68 0 0 Z " fill="#1B2565" transform="translate(29,52)"/>
<path d="M0 0 C0.99 0.33 1.98 0.66 3 1 C3 6.28 3 11.56 3 17 C5.31 17 7.62 17 10 17 C10 17.33 10 17.66 10 18 C7.36 18 4.72 18 2 18 C-0.1583195 11.92972642 -0.20852314 6.40629424 0 0 Z " fill="#D70504" transform="translate(156,77)"/>
<path d="M0 0 C3.63 0 7.26 0 11 0 C11 0.99 11 1.98 11 3 C10.34 3 9.68 3 9 3 C8.67 3.66 8.34 4.32 8 5 C7.01 4.67 6.02 4.34 5 4 C5 3.34 5 2.68 5 2 C3.68 1.67 2.36 1.34 1 1 C1 7.6 1 14.2 1 21 C0.67 21 0.34 21 0 21 C0 14.07 0 7.14 0 0 Z " fill="#BE282B" transform="translate(187,75)"/>
<path d="M0 0 C0 2.64 0 5.28 0 8 C-3.3 8 -6.6 8 -10 8 C-9.67 7.34 -9.34 6.68 -9 6 C-6.36 6 -3.72 6 -1 6 C-1 4.68 -1 3.36 -1 2 C-2.6045556 2.14148989 -4.20863767 2.28835686 -5.8125 2.4375 C-6.70582031 2.51871094 -7.59914063 2.59992188 -8.51953125 2.68359375 C-11.12743559 2.93489767 -11.12743559 2.93489767 -14 4 C-14 3.01 -14 2.02 -14 1 C-12.23103898 0.63659714 -10.45973374 0.28459117 -8.6875 -0.0625 C-7.70136719 -0.25972656 -6.71523437 -0.45695312 -5.69921875 -0.66015625 C-3 -1 -3 -1 0 0 Z " fill="#FBCAC6" transform="translate(114,73)"/>
<path d="M0 0 C2.97 0.495 2.97 0.495 6 1 C4.15789474 5.73684211 4.15789474 5.73684211 2.875 7.875 C1.61732164 10.92936174 1.87451775 13.73746159 2 17 C1.34 17 0.68 17 0 17 C0 11.39 0 5.78 0 0 Z " fill="#FAFDF8" transform="translate(179,42)"/>
<path d="M0 0 C1.33804688 0.04060547 1.33804688 0.04060547 2.703125 0.08203125 C3.37859375 0.11683594 4.0540625 0.15164062 4.75 0.1875 C4.75 1.5075 4.75 2.8275 4.75 4.1875 C2.44 4.1875 0.13 4.1875 -2.25 4.1875 C-2.25 3.5275 -2.25 2.8675 -2.25 2.1875 C-4.22536745 2.53536708 -4.22536745 2.53536708 -6.25 3.1875 C-6.58 3.8475 -6.91 4.5075 -7.25 5.1875 C-7.91 5.1875 -8.57 5.1875 -9.25 5.1875 C-9.58 6.1775 -9.91 7.1675 -10.25 8.1875 C-9.9299297 5.22684968 -9.71276664 3.63343877 -7.53125 1.53125 C-4.7845053 -0.08669551 -3.15927814 -0.12470835 0 0 Z " fill="#C63437" transform="translate(108.25,74.8125)"/>
<path d="M0 0 C0.680625 0.00644531 1.36125 0.01289062 2.0625 0.01953125 C4 0.1875 4 0.1875 7 1.1875 C7 2.1775 7 3.1675 7 4.1875 C5.22950311 4.24160687 3.45853151 4.28034119 1.6875 4.3125 C0.20830078 4.34730469 0.20830078 4.34730469 -1.30078125 4.3828125 C-4 4.1875 -4 4.1875 -7 2.1875 C-3.97455666 0.17053778 -3.38932618 -0.07061096 0 0 Z " fill="#DC060A" transform="translate(68,42.8125)"/>
<path d="M0 0 C0.8971875 0.5259375 0.8971875 0.5259375 1.8125 1.0625 C0.8225 2.5475 0.8225 2.5475 -0.1875 4.0625 C-1.1775 4.0625 -2.1675 4.0625 -3.1875 4.0625 C-3.5175 5.3825 -3.8475 6.7025 -4.1875 8.0625 C-5.1775 8.0625 -6.1675 8.0625 -7.1875 8.0625 C-7.875 5.75 -7.875 5.75 -8.1875 3.0625 C-6.04404894 0.06166852 -3.6194171 -1.55117876 0 0 Z " fill="#E30303" transform="translate(46.1875,14.9375)"/>
<path d="M0 0 C1.32 0.33 2.64 0.66 4 1 C3.67 2.98 3.34 4.96 3 7 C2.34 7 1.68 7 1 7 C1.515625 7.94875 2.03125 8.8975 2.5625 9.875 C3.036875 10.90625 3.51125 11.9375 4 13 C3 15 3 15 0 17 C0 11.39 0 5.78 0 0 Z " fill="#FED4D3" transform="translate(192,79)"/>
<path d="M0 0 C1.98 0.66 3.96 1.32 6 2 C5.01 4.97 4.02 7.94 3 11 C2.34 11 1.68 11 1 11 C1 12.65 1 14.3 1 16 C0.34 16.33 -0.32 16.66 -1 17 C-1.2090625 11.87796873 -0.41261976 7.89708182 1 3 C0.67 2.01 0.34 1.02 0 0 Z " fill="#01126C" transform="translate(137,37)"/>
<path d="M0 0 C0.8353125 0.37125 0.8353125 0.37125 1.6875 0.75 C0.61480209 3.34235327 -0.14416926 4.6262274 -2.4375 6.3125 C-3.365625 7.0240625 -3.365625 7.0240625 -4.3125 7.75 C-4.3125 8.74 -4.3125 9.73 -4.3125 10.75 C-4.9725 10.75 -5.6325 10.75 -6.3125 10.75 C-7.125 7.5 -7.125 7.5 -7.3125 3.75 C-4.95220236 1.05251699 -3.68089517 -0.39793461 0 0 Z " fill="#222962" transform="translate(49.3125,22.25)"/>
<path d="M0 0 C2.12438339 -0.08078641 4.2496323 -0.13909141 6.375 -0.1875 C7.55835938 -0.22230469 8.74171875 -0.25710937 9.9609375 -0.29296875 C11.46527344 -0.14794922 11.46527344 -0.14794922 13 0 C15.52775351 3.79163027 15.22443035 6.80874031 15.125 11.1875 C15.11597656 11.93708984 15.10695312 12.68667969 15.09765625 13.45898438 C15.07412578 15.30612654 15.03825561 17.15310412 15 19 C13.95458659 17.70196742 12.95627853 16.36503083 12 15 C12.3125 13.1875 12.3125 13.1875 13 11 C13.25015873 7.41642759 13.25015873 7.41642759 13 4 C10.41073669 1.41073669 8.97294721 1.62601957 5.375 1.375 C3.87066406 1.26285156 3.87066406 1.26285156 2.3359375 1.1484375 C1.56507813 1.09945312 0.79421875 1.05046875 0 1 C0 0.67 0 0.34 0 0 Z " fill="#FAC1BE" transform="translate(187,74)"/>
<path d="M0 0 C0.99 0 1.98 0 3 0 C3 1.98 3 3.96 3 6 C4.98 6 6.96 6 9 6 C9 7.32 9 8.64 9 10 C7.02 10 5.04 10 3 10 C3 11.65 3 13.3 3 15 C2.67 15 2.34 15 2 15 C2 10.38 2 5.76 2 1 C1.34 0.67 0.68 0.34 0 0 Z " fill="#DB2B2C" transform="translate(157,77)"/>
<path d="M0 0 C2 2 2 2 2 5 C2.99 5.33 3.98 5.66 5 6 C4.625 8.4375 4.625 8.4375 4 11 C3.01 11.495 3.01 11.495 2 12 C1.690625 10.865625 1.38125 9.73125 1.0625 8.5625 C0.37075469 5.21224901 0.37075469 5.21224901 -1 4 C-2.84891946 3.76636119 -4.70488031 3.58696365 -6.5625 3.4375 C-7.57441406 3.35371094 -8.58632812 3.26992187 -9.62890625 3.18359375 C-10.80259766 3.09271484 -10.80259766 3.09271484 -12 3 C-12 2.67 -12 2.34 -12 2 C-11.21753906 1.93941406 -10.43507812 1.87882812 -9.62890625 1.81640625 C-8.61699219 1.73261719 -7.60507813 1.64882812 -6.5625 1.5625 C-5.55316406 1.48128906 -4.54382813 1.40007812 -3.50390625 1.31640625 C-1.06359221 1.26788532 -1.06359221 1.26788532 0 0 Z " fill="#F9C5BE" transform="translate(148,72)"/>
<path d="M0 0 C2.06356895 0.2840051 4.1258285 0.57753352 6.1875 0.875 C7.33605469 1.03742187 8.48460937 1.19984375 9.66796875 1.3671875 C12.71994212 1.94681199 15.24102179 2.57993769 18 4 C18.8125 6.625 18.8125 6.625 19 9 C18.34 8.67 17.68 8.34 17 8 C17 7.34 17 6.68 17 6 C15.44033782 5.491217 13.87710759 4.99336531 12.3125 4.5 C11.44238281 4.2215625 10.57226562 3.943125 9.67578125 3.65625 C6.97341834 2.9934807 4.76903475 2.7724081 2 3 C0.18523997 4.39585785 0.18523997 4.39585785 -1 6 C-0.67 4.02 -0.34 2.04 0 0 Z " fill="#F8C8C9" transform="translate(39,10)"/>
<path d="M0 0 C0.99 0 1.98 0 3 0 C2.67 5.94 2.34 11.88 2 18 C1.34 18 0.68 18 0 18 C0 12.06 0 6.12 0 0 Z " fill="#E20205" transform="translate(189,77)"/>
<path d="M0 0 C1.1446875 1.175625 1.1446875 1.175625 2.3125 2.375 C4.90891805 5.07257717 4.90891805 5.07257717 8 7 C8 7.66 8 8.32 8 9 C6.46875 10.2890625 6.46875 10.2890625 4.5 11.625 C3.8503125 12.07101563 3.200625 12.51703125 2.53125 12.9765625 C2.0259375 13.31429687 1.520625 13.65203125 1 14 C1.309375 12.205625 1.309375 12.205625 1.625 10.375 C2.13581838 6.4423982 1.56734717 3.6878757 0 0 Z " fill="#E0E6F7" transform="translate(25,58)"/>
<path d="M0 0 C3.3 0.33 6.6 0.66 10 1 C7 3 7 3 4.4375 4 C1.87436838 4.86842753 1.87436838 4.86842753 0 7 C-0.99 7 -1.98 7 -3 7 C-2.67 5.68 -2.34 4.36 -2 3 C-1.34 3 -0.68 3 0 3 C0 2.01 0 1.02 0 0 Z " fill="#F3D1D7" transform="translate(56,40)"/>
<path d="M0 0 C0.33 0 0.66 0 1 0 C1 5.61 1 11.22 1 17 C-1.31 17 -3.62 17 -6 17 C-6 15.02 -6 13.04 -6 11 C-5.34 12.32 -4.68 13.64 -4 15 C-2.68 15 -1.36 15 0 15 C0 10.05 0 5.1 0 0 Z " fill="#070B54" transform="translate(141,53)"/>
<path d="M0 0 C2.64 0 5.28 0 8 0 C8.33 0.99 8.66 1.98 9 3 C4.375 6 4.375 6 1 6 C0.67 4.02 0.34 2.04 0 0 Z " fill="#111864" transform="translate(33,62)"/>
<path d="M0 0 C1.32 0.33 2.64 0.66 4 1 C3.01 1.495 3.01 1.495 2 2 C2 6.29 2 10.58 2 15 C1.34 15 0.68 15 0 15 C0 10.05 0 5.1 0 0 Z " fill="#E60105" transform="translate(173,77)"/>
<path d="M0 0 C0.66 0 1.32 0 2 0 C3.26237731 2.52475462 3.09856404 4.31200466 3.0625 7.125 C3.05347656 8.03507812 3.04445312 8.94515625 3.03515625 9.8828125 C3.02355469 10.58148438 3.01195312 11.28015625 3 12 C1.68 11.34 0.36 10.68 -1 10 C-0.67 6.7 -0.34 3.4 0 0 Z " fill="#D41618" transform="translate(144,79)"/>
<path d="M0 0 C0 5 0 5 -1.4375 6.5 C-5.08271629 8.63378514 -8.87563571 9.25091674 -13 10 C-11.73625877 7.47251754 -10.72794086 7.2656061 -8.1875 6.125 C-4.82881694 4.52103287 -2.45272372 2.86151101 0 0 Z " fill="#BABDDA" transform="translate(83,59)"/>
<path d="M0 0 C0.57363281 0.22300781 1.14726563 0.44601563 1.73828125 0.67578125 C1.11953125 0.92328125 0.50078125 1.17078125 -0.13671875 1.42578125 C-2.42956615 2.48080308 -2.42956615 2.48080308 -3.07421875 4.73828125 C-3.46609375 5.37765625 -3.85796875 6.01703125 -4.26171875 6.67578125 C-7.88671875 7.42578125 -7.88671875 7.42578125 -11.26171875 7.67578125 C-10.0329058 5.21815535 -8.6104902 4.17639865 -6.44921875 2.48828125 C-5.41861328 1.66263672 -5.41861328 1.66263672 -4.3671875 0.8203125 C-2.26171875 -0.32421875 -2.26171875 -0.32421875 0 0 Z " fill="#F9C6BC" transform="translate(64.26171875,49.32421875)"/>
<path d="M0 0 C1.98 0 3.96 0 6 0 C6.33 1.32 6.66 2.64 7 4 C4.36 4.33 1.72 4.66 -1 5 C-0.67 3.35 -0.34 1.7 0 0 Z " fill="#F1F5F8" transform="translate(23,77)"/>
<path d="M0 0 C0.66666667 2.66666667 1.33333333 5.33333333 2 8 C-0.07553648 8.5534764 -1.84365964 9 -4 9 C-4 9.66 -4 10.32 -4 11 C-4.66 11 -5.32 11 -6 11 C-4.18690997 7.22272911 -2.0926741 3.62730178 0 0 Z " fill="#E4E6F6" transform="translate(198,59)"/>
<path d="M0 0 C0.99 0.33 1.98 0.66 3 1 C3.17835515 5.54805635 2.99785435 8.8794254 1 13 C-0.00496852 9.98509443 -0.10335303 7.95818308 -0.0625 4.8125 C-0.05347656 3.91144531 -0.04445312 3.01039062 -0.03515625 2.08203125 C-0.02355469 1.39496094 -0.01195312 0.70789062 0 0 Z " fill="#04106D" transform="translate(194,46)"/>
<path d="M0 0 C0.33 0 0.66 0 1 0 C1 1.98 1 3.96 1 6 C2.98 6.495 2.98 6.495 5 7 C5 7.66 5 8.32 5 9 C5.99 9.33 6.98 9.66 8 10 C8 11.98 8 13.96 8 16 C7.34 15.01 6.68 14.02 6 13 C3.73735482 9.60879196 3.73735482 9.60879196 0 8 C0 5.36 0 2.72 0 0 Z " fill="#EAC9D7" transform="translate(70,33)"/>
<path d="M0 0 C0.33 0 0.66 0 1 0 C1.33 2.64 1.66 5.28 2 8 C5.96 8.99 5.96 8.99 10 10 C10 10.33 10 10.66 10 11 C3.9453125 11.1953125 3.9453125 11.1953125 2 11 C0 9 0 9 -0.1953125 6.8359375 C-0.17210938 6.02382812 -0.14890625 5.21171875 -0.125 4.375 C-0.10695313 3.55773437 -0.08890625 2.74046875 -0.0703125 1.8984375 C-0.04710938 1.27195312 -0.02390625 0.64546875 0 0 Z " fill="#F9BAB7" transform="translate(103,81)"/>
<path d="M0 0 C0.99 0 1.98 0 3 0 C2.34 1.98 1.68 3.96 1 6 C0.34 6 -0.32 6 -1 6 C-1.66 7.32 -2.32 8.64 -3 10 C-4 7 -4 7 -3.22265625 5.17578125 C-2.1484375 3.45052083 -1.07421875 1.72526042 0 0 Z " fill="#949593" transform="translate(85,75)"/>
<path d="M0 0 C3.7758544 0.52442422 6.22372155 1.32654667 9 4 C9 4.99 9 5.98 9 7 C6.0625 6.25 6.0625 6.25 3 5 C2.25 2.9375 2.25 2.9375 2 1 C1.34 0.67 0.68 0.34 0 0 Z " fill="#5E5D8C" transform="translate(57,21)"/>
<path d="M0 0 C0.99 0.99 1.98 1.98 3 3 C2.67 3.99 2.34 4.98 2 6 C1.77439324 8.39254576 1.59151405 10.78928123 1.4375 13.1875 C1.35371094 14.45980469 1.26992187 15.73210937 1.18359375 17.04296875 C1.12300781 18.01878906 1.06242188 18.99460937 1 20 C0.34 19.67 -0.32 19.34 -1 19 C-0.67 12.73 -0.34 6.46 0 0 Z " fill="#D1D2F1" transform="translate(143,51)"/>
<path d="M0 0 C0.66 0.33 1.32 0.66 2 1 C2 1.99 2 2.98 2 4 C2.66 3.01 3.32 2.02 4 1 C5.85776765 4.13498292 6.20140476 6.37471432 6 10 C5.67 8.68 5.34 7.36 5 6 C3.02 6 1.04 6 -1 6 C-0.67 4.02 -0.34 2.04 0 0 Z " fill="#C9C9DA" transform="translate(41,29)"/>
<path d="M0 0 C-1.12451727 2.9719385 -2.22293791 5.33440687 -4 8 C-4.66 8 -5.32 8 -6 8 C-6.33 8.66 -6.66 9.32 -7 10 C-7.3125 7.8125 -7.3125 7.8125 -7 5 C-2.77777778 0 -2.77777778 0 0 0 Z " fill="#1E1C52" transform="translate(32,36)"/>
<path d="M0 0 C2 1.1875 2 1.1875 4 3 C4.25 5.6875 4.25 5.6875 4 8 C2.35 8.33 0.7 8.66 -1 9 C-0.01 7.02 0.98 5.04 2 3 C0.02 3.99 0.02 3.99 -2 5 C-2 4.01 -2 3.02 -2 2 C-1.34 2 -0.68 2 0 2 C0 1.34 0 0.68 0 0 Z " fill="#CAD0E3" transform="translate(30,33)"/>
<path d="M0 0 C0.99 0.33 1.98 0.66 3 1 C3 1.99 3 2.98 3 4 C4.32 4.33 5.64 4.66 7 5 C1.72 5 -3.56 5 -9 5 C-9 4.67 -9 4.34 -9 4 C-6.03 4 -3.06 4 0 4 C0 2.68 0 1.36 0 0 Z " fill="#E08F91" transform="translate(113,92)"/>
<path d="M0 0 C0.33 0.99 0.66 1.98 1 3 C0 4 0 4 -1.84765625 4.09765625 C-3.8984375 4.06510417 -5.94921875 4.03255208 -8 4 C-8 3.01 -8 2.02 -8 1 C-5.36 0.67 -2.72 0.34 0 0 Z " fill="#040F63" transform="translate(188,63)"/>
<path d="M0 0 C0.33 0.66 0.66 1.32 1 2 C2.32 2 3.64 2 5 2 C4.67 3.98 4.34 5.96 4 8 C3.01 8 2.02 8 1 8 C0.26919734 6.02253397 -0.39421747 4.01927511 -1 2 C-0.67 1.34 -0.34 0.68 0 0 Z " fill="#2A2E6C" transform="translate(52,35)"/>
<path d="M0 0 C0 1.32 0 2.64 0 4 C-2.97 3.67 -5.94 3.34 -9 3 C-8.67 2.01 -8.34 1.02 -8 0 C-5.13822943 -1.43088528 -3.06624227 -0.59991697 0 0 Z " fill="#E3E4EF" transform="translate(64,19)"/>
<path d="M0 0 C0.33 0 0.66 0 1 0 C1.01417969 0.65226562 1.02835937 1.30453125 1.04296875 1.9765625 C1.39300905 8.39081441 2.38280217 11.50119186 7 16 C4.03824877 15.38722388 2.61941217 14.74627478 0 13 C-0.29296875 9.9609375 -0.29296875 9.9609375 -0.1875 6.375 C-0.16042969 5.18648438 -0.13335937 3.99796875 -0.10546875 2.7734375 C-0.07066406 1.85820313 -0.03585938 0.94296875 0 0 Z " fill="#FDC9C8" transform="translate(97,81)"/>
<path d="M0 0 C0.33 0 0.66 0 1 0 C1.33 2.97 1.66 5.94 2 9 C0.68 9.33 -0.64 9.66 -2 10 C-2.66 9.01 -3.32 8.02 -4 7 C-3.67 6.01 -3.34 5.02 -3 4 C-2.34 4.33 -1.68 4.66 -1 5 C-0.67 3.35 -0.34 1.7 0 0 Z " fill="#D52226" transform="translate(102,84)"/>
<path d="M0 0 C0 1.32 0 2.64 0 4 C-2.97 3.67 -5.94 3.34 -9 3 C-9 2.34 -9 1.68 -9 1 C-2.25 -1.125 -2.25 -1.125 0 0 Z " fill="#FEF6F1" transform="translate(170,88)"/>
<path d="M0 0 C3.63 0 7.26 0 11 0 C11 0.99 11 1.98 11 3 C8.69 3 6.38 3 4 3 C4 2.34 4 1.68 4 1 C2.68 0.67 1.36 0.34 0 0 Z " fill="#BB101C" transform="translate(156,76)"/>
<path d="M0 0 C2 2 2 2 2 5 C-1.63 5 -5.26 5 -9 5 C-8.67 4.34 -8.34 3.68 -8 3 C-5.36 3 -2.72 3 0 3 C0 2.01 0 1.02 0 0 Z " fill="#D45D62" transform="translate(75,44)"/>
<path d="M0 0 C0 0.33 0 0.66 0 1 C-2.97 1 -5.94 1 -9 1 C-9 2.32 -9 3.64 -9 5 C-9.66 5 -10.32 5 -11 5 C-10.67 3.02 -10.34 1.04 -10 -1 C-6.06329512 -2.31223496 -3.87511856 -1.24296256 0 0 Z " fill="#C02223" transform="translate(46,42)"/>
<path d="M0 0 C0.33 1.98 0.66 3.96 1 6 C0.01 6 -0.98 6 -2 6 C-2.33 4.68 -2.66 3.36 -3 2 C-3.99 2.33 -4.98 2.66 -6 3 C-6 2.01 -6 1.02 -6 0 C-3.50907189 -1.24546405 -2.58919267 -0.7767578 0 0 Z " fill="#F5F5FA" transform="translate(46,35)"/>
<path d="M0 0 C1.32 1.32 2.64 2.64 4 4 C3.67 4.66 3.34 5.32 3 6 C-2.75 4.375 -2.75 4.375 -5 1 C-2.525 1.495 -2.525 1.495 0 2 C0 1.34 0 0.68 0 0 Z " fill="#1E2A67" transform="translate(66,26)"/>
<path d="M0 0 C1.98 0 3.96 0 6 0 C6 1.32 6 2.64 6 4 C4.02 4 2.04 4 0 4 C0 2.68 0 1.36 0 0 Z " fill="#C41922" transform="translate(176,83)"/>
<path d="M0 0 C2.475 0.99 2.475 0.99 5 2 C5.33 1.34 5.66 0.68 6 0 C6.33 1.32 6.66 2.64 7 4 C4.36 4 1.72 4 -1 4 C-1.66 5.32 -2.32 6.64 -3 8 C-3.36923077 3.44615385 -3.36923077 3.44615385 -1.5 1.1875 C-1.005 0.795625 -0.51 0.40375 0 0 Z " fill="#505178" transform="translate(24,74)"/>
<path d="M0 0 C2.0625 0.4375 2.0625 0.4375 4 1 C2.515 3.475 2.515 3.475 1 6 C-0.32 5.67 -1.64 5.34 -3 5 C-1.125 1.125 -1.125 1.125 0 0 Z " fill="#151759" transform="translate(28,70)"/>
<path d="M0 0 C5.52677733 -0.19392201 9.75614911 0.2520497 15 2 C12 4 12 4 9.3125 3.625 C8.549375 3.41875 7.78625 3.2125 7 3 C7 2.34 7 1.68 7 1 C4.69 1 2.38 1 0 1 C0 0.67 0 0.34 0 0 Z " fill="#F9BFBD" transform="translate(33,48)"/>
<path d="M0 0 C3.57104439 1.87949705 5.54744301 3.17053157 7 7 C5.33333333 7 3.66666667 7 2 7 C1.34 4.69 0.68 2.38 0 0 Z " fill="#1E2461" transform="translate(190,35)"/>
<path d="M0 0 C0.99 0 1.98 0 3 0 C3 0.66 3 1.32 3 2 C3.99 1.67 4.98 1.34 6 1 C5.67 2.32 5.34 3.64 5 5 C3.68 5.33 2.36 5.66 1 6 C0.67 4.02 0.34 2.04 0 0 Z " fill="#F9F1EF" transform="translate(202,91)"/>
<path d="M0 0 C1.5 1.0625 1.5 1.0625 3 3 C3.1875 6.6875 3.1875 6.6875 3 10 C2.34 10 1.68 10 1 10 C0.63883954 8.5225254 0.28624952 7.04295325 -0.0625 5.5625 C-0.25972656 4.73878906 -0.45695313 3.91507812 -0.66015625 3.06640625 C-0.82837891 2.04353516 -0.82837891 2.04353516 -1 1 C-0.67 0.67 -0.34 0.34 0 0 Z " fill="#FBF9F3" transform="translate(151,85)"/>
<path d="M0 0 C2.31 0 4.62 0 7 0 C6.01 0.495 6.01 0.495 5 1 C5.33 1.99 5.66 2.98 6 4 C4.02 4 2.04 4 0 4 C0 2.68 0 1.36 0 0 Z " fill="#FEC6BE" transform="translate(160,79)"/>
<path d="M0 0 C2.625 1.3125 2.625 1.3125 5 3 C5 3.66 5 4.32 5 5 C4.34 5 3.68 5 3 5 C2.67 5.99 2.34 6.98 2 8 C0.02 4.535 0.02 4.535 -2 1 C-1.34 0.67 -0.68 0.34 0 0 Z " fill="#1A196C" transform="translate(152,61)"/>
<path d="M0 0 C0.66 0.33 1.32 0.66 2 1 C2 3.64 2 6.28 2 9 C1.01 9 0.02 9 -1 9 C-1.09765625 2.84765625 -1.09765625 2.84765625 -1 1 C-0.67 0.67 -0.34 0.34 0 0 Z " fill="#100E50" transform="translate(68,31)"/>
<path d="M0 0 C1.65 0.33 3.3 0.66 5 1 C5 2.32 5 3.64 5 5 C0.545 5.495 0.545 5.495 -4 6 C-3.67 5.34 -3.34 4.68 -3 4 C0.0625 3.375 0.0625 3.375 3 3 C2.01 2.67 1.02 2.34 0 2 C0 1.34 0 0.68 0 0 Z " fill="#BC3737" transform="translate(51,14)"/>
<path d="M0 0 C2.97 0.33 5.94 0.66 9 1 C5.09567131 2.95216435 2.27786748 3.50639991 -2 4 C-1.34 2.68 -0.68 1.36 0 0 Z " fill="#C42225" transform="translate(41,12)"/>
<path d="M0 0 C0.33 0 0.66 0 1 0 C1 4.29 1 8.58 1 13 C1.66 13 2.32 13 3 13 C3 13.99 3 14.98 3 16 C2.01 16 1.02 16 0 16 C0 10.72 0 5.44 0 0 Z " fill="#D51117" transform="translate(175,79)"/>
<path d="M0 0 C0.66 0 1.32 0 2 0 C2.29296875 5.95703125 2.29296875 5.95703125 2 8 C1.01 8.99 0.02 9.98 -1 11 C-0.67 7.37 -0.34 3.74 0 0 Z " fill="#060A53" transform="translate(197,48)"/>
<path d="M0 0 C2 1 4 2 6 3 C6.625 5.0625 6.625 5.0625 7 7 C4.50638429 5.79618552 2.31856917 4.54571278 0 3 C0 2.01 0 1.02 0 0 Z " fill="#DDDFF0" transform="translate(31,52)"/>
<path d="M0 0 C0.66 0 1.32 0 2 0 C2 2.31 2 4.62 2 7 C1.34 7 0.68 7 0 7 C0 6.34 0 5.68 0 5 C-1.32 5 -2.64 5 -4 5 C-3.67 4.34 -3.34 3.68 -3 3 C-2.34 3.33 -1.68 3.66 -1 4 C-0.67 2.68 -0.34 1.36 0 0 Z " fill="#111A63" transform="translate(110,48)"/>
<path d="M0 0 C1.32 0.66 2.64 1.32 4 2 C4 2.99 4 3.98 4 5 C2.35 4.67 0.7 4.34 -1 4 C-0.67 2.68 -0.34 1.36 0 0 Z " fill="#E9EEF6" transform="translate(185,43)"/>
<path d="M0 0 C2.875 0.3125 2.875 0.3125 6 1 C6.66 1.99 7.32 2.98 8 4 C4.7 3.67 1.4 3.34 -2 3 C-1.34 2.01 -0.68 1.02 0 0 Z " fill="#AE1827" transform="translate(67,40)"/>
<path d="M0 0 C3.24271506 0.5590888 4.93057424 1.4132178 7 4 C7 4.66 7 5.32 7 6 C6.01 6.33 5.02 6.66 4 7 C3.34 5.35 2.68 3.7 2 2 C1.34 2 0.68 2 0 2 C0 1.34 0 0.68 0 0 Z " fill="#2F2C61" transform="translate(77,36)"/>
<path d="M0 0 C2.475 0.495 2.475 0.495 5 1 C4.34 3.31 3.68 5.62 3 8 C2.01 8 1.02 8 0 8 C0 5.36 0 2.72 0 0 Z " fill="#F4E3E5" transform="translate(36,26)"/>
<path d="M0 0 C2.31 0 4.62 0 7 0 C6.01 0.33 5.02 0.66 4 1 C4 1.66 4 2.32 4 3 C4.66 3.33 5.32 3.66 6 4 C4.02 4 2.04 4 0 4 C0 2.68 0 1.36 0 0 Z " fill="#FEBDB9" transform="translate(176,79)"/>
<path d="M0 0 C0.99 0 1.98 0 3 0 C1.60667426 3.36720387 0.0210714 4.9859524 -3 7 C-3 5.35 -3 3.7 -3 2 C-2.01 2 -1.02 2 0 2 C0 1.34 0 0.68 0 0 Z " fill="#0E114C" transform="translate(35,76)"/>
<path d="M0 0 C-3.83542457 2.55694972 -5.65902533 2.04045639 -10.1875 1.625 C-12.09595703 1.45871094 -12.09595703 1.45871094 -14.04296875 1.2890625 C-15.01878906 1.19367188 -15.99460938 1.09828125 -17 1 C-17 0.67 -17 0.34 -17 0 C-14.9174133 -0.19561869 -12.83388144 -0.38119313 -10.75 -0.5625 C-9.58984375 -0.66691406 -8.4296875 -0.77132812 -7.234375 -0.87890625 C-4.48128523 -0.98198087 -2.580018 -0.86213473 0 0 Z " fill="#C9CCEA" transform="translate(67,71)"/>
<path d="M0 0 C0.66 0 1.32 0 2 0 C2.33 1.32 2.66 2.64 3 4 C3.99 4 4.98 4 6 4 C6.33 3.34 6.66 2.68 7 2 C7.33 3.32 7.66 4.64 8 6 C6.02 6 4.04 6 2 6 C1.34 4.02 0.68 2.04 0 0 Z " fill="#BE3F42" transform="translate(195,91)"/>
<path d="M0 0 C0.33 1.32 0.66 2.64 1 4 C1.66 4 2.32 4 3 4 C3 5.32 3 6.64 3 8 C1.68 8 0.36 8 -1 8 C-0.67 5.36 -0.34 2.72 0 0 Z " fill="#C9201D" transform="translate(117,88)"/>
<path d="M0 0 C0.99 0 1.98 0 3 0 C3.33 2.64 3.66 5.28 4 8 C3.34 7.67 2.68 7.34 2 7 C2 5.68 2 4.36 2 3 C1.01 3 0.02 3 -1 3 C-0.67 2.01 -0.34 1.02 0 0 Z " fill="#DE0305" transform="translate(124,77)"/>
<path d="M0 0 C-1.36983503 3.16115776 -1.9890638 3.9927092 -5 6 C-5.66 5.34 -6.32 4.68 -7 4 C-3.375 0 -3.375 0 0 0 Z " fill="#E7EFFB" transform="translate(42,67)"/>
<path d="M0 0 C0.99 0.33 1.98 0.66 3 1 C2.34 4.96 1.68 8.92 1 13 C0.67 13 0.34 13 0 13 C-0.19466332 11.20909747 -0.38051213 9.41723495 -0.5625 7.625 C-0.66691406 6.62726563 -0.77132812 5.62953125 -0.87890625 4.6015625 C-1 2 -1 2 0 0 Z " fill="#959595" transform="translate(78,83)"/>
<path d="M0 0 C0.66 0.66 1.32 1.32 2 2 C1.625 4.625 1.625 4.625 1 7 C0.34 7 -0.32 7 -1 7 C-1.33 5.02 -1.66 3.04 -2 1 C-1.34 0.67 -0.68 0.34 0 0 Z " fill="#D8060B" transform="translate(198,77)"/>
<path d="M0 0 C1.485 0.99 1.485 0.99 3 2 C4.65549531 2.38499891 6.3222433 2.72793135 8 3 C8 3.66 8 4.32 8 5 C5.125 5.125 5.125 5.125 2 5 C1.34 4.34 0.68 3.68 0 3 C0 2.01 0 1.02 0 0 Z " fill="#F9E1E8" transform="translate(119,70)"/>
<path d="M0 0 C1.98 0.99 1.98 0.99 4 2 C4.33 1.34 4.66 0.68 5 0 C5.33 1.98 5.66 3.96 6 6 C5.01 6 4.02 6 3 6 C0 2.66666667 0 2.66666667 0 0 Z " fill="#CDCFE4" transform="translate(144,37)"/>
<path d="M0 0 C0.33 0 0.66 0 1 0 C1.1953125 6.0546875 1.1953125 6.0546875 1 8 C0.34 8.66 -0.32 9.32 -1 10 C-2.46726798 6.18510326 -1.43336419 3.70988378 0 0 Z " fill="#D1D3E8" transform="translate(60,26)"/>
<path d="M0 0 C1.98 0 3.96 0 6 0 C6 1.32 6 2.64 6 4 C4.68 4 3.36 4 2 4 C2 3.01 2 2.02 2 1 C1.34 0.67 0.68 0.34 0 0 Z " fill="#BE2A34" transform="translate(178,92)"/>
<path d="M0 0 C1.20628008 2.33214148 2.1654738 4.49642139 3 7 C2.01 8.485 2.01 8.485 1 10 C1 9.01 1 8.02 1 7 C0.34 7 -0.32 7 -1 7 C-0.67 4.69 -0.34 2.38 0 0 Z " fill="#DA0304" transform="translate(128,85)"/>
<path d="M0 0 C2.29633824 3.44450737 2.54016485 5.93812283 3 10 C0.99226044 7.99226044 0.00607146 6.63126383 -1 4 C-0.625 1.75 -0.625 1.75 0 0 Z " fill="#FAC1C4" transform="translate(149,85)"/>
<path d="M0 0 C1.98 0 3.96 0 6 0 C6 0.99 6 1.98 6 3 C4.02 3 2.04 3 0 3 C0 2.01 0 1.02 0 0 Z " fill="#C10F19" transform="translate(160,84)"/>
<path d="M0 0 C0 3.10551666 -0.5393715 4.35261084 -2 7 C-3.32 6.67 -4.64 6.34 -6 6 C-4.02 4.02 -2.04 2.04 0 0 Z " fill="#D6DCED" transform="translate(41,74)"/>
<path d="M0 0 C0.33 0.99 0.66 1.98 1 3 C0.01 3.495 0.01 3.495 -1 4 C-1.99 3.67 -2.98 3.34 -4 3 C-4 3.66 -4 4.32 -4 5 C-5.32 5.33 -6.64 5.66 -8 6 C-8 5.34 -8 4.68 -8 4 C-7.01 4 -6.02 4 -5 4 C-5 3.34 -5 2.68 -5 2 C-3.35 1.34 -1.7 0.68 0 0 Z " fill="#26285F" transform="translate(39,73)"/>
<path d="M0 0 C0.33 0 0.66 0 1 0 C1 1.65 1 3.3 1 5 C-0.8125 5.625 -0.8125 5.625 -3 6 C-3.99 5.34 -4.98 4.68 -6 4 C-4.7934375 3.566875 -4.7934375 3.566875 -3.5625 3.125 C-0.8673532 2.26737432 -0.8673532 2.26737432 0 0 Z " fill="#2F356D" transform="translate(188,58)"/>
<path d="M0 0 C0.99 0.33 1.98 0.66 3 1 C3 2.32 3 3.64 3 5 C1.68 5 0.36 5 -1 5 C-0.67 3.35 -0.34 1.7 0 0 Z " fill="#D60706" transform="translate(119,87)"/>
<path d="M0 0 C1.4606285 2.64738916 2 3.89448334 2 7 C0.68 7 -0.64 7 -2 7 C-1.42415568 4.61435923 -0.77772405 2.33317216 0 0 Z " fill="#FBA6A0" transform="translate(124,82)"/>
<path d="M0 0 C0.99 0.33 1.98 0.66 3 1 C2.625 3.4375 2.625 3.4375 2 6 C1.01 6.495 1.01 6.495 0 7 C0 4.69 0 2.38 0 0 Z " fill="#F5CFCF" transform="translate(150,77)"/>
<path d="M0 0 C1.32 0 2.64 0 4 0 C3.6875 1.9375 3.6875 1.9375 3 4 C2.01 4.33 1.02 4.66 0 5 C0 3.35 0 1.7 0 0 Z " fill="#050B6D" transform="translate(155,36)"/>
<path d="M0 0 C0.66 0.33 1.32 0.66 2 1 C1.67 3.64 1.34 6.28 1 9 C0.67 9 0.34 9 0 9 C0 7.02 0 5.04 0 3 C-1.32 2.67 -2.64 2.34 -4 2 C-2.125 0.9375 -2.125 0.9375 0 0 Z " fill="#3A3B74" transform="translate(66,32)"/>
<path d="M0 0 C0.66 0.33 1.32 0.66 2 1 C2 2.98 2 4.96 2 7 C1.01 6.67 0.02 6.34 -1 6 C-1.042721 4.33388095 -1.04063832 2.66617115 -1 1 C-0.67 0.67 -0.34 0.34 0 0 Z " fill="#D0797E" transform="translate(35,25)"/>
<path d="M0 0 C0.99 0.33 1.98 0.66 3 1 C-0.32307692 4.93846154 -0.32307692 4.93846154 -3.75 5.25 C-4.4925 5.1675 -5.235 5.085 -6 5 C-5.195625 4.360625 -4.39125 3.72125 -3.5625 3.0625 C-1.7249496 1.59396498 -1.7249496 1.59396498 0 0 Z " fill="#E7ADBE" transform="translate(43,22)"/>
</svg>
